<svg xmlns="http://www.w3.org/2000/svg" xmlns:xlink="http://www.w3.org/1999/xlink" width="3559" height="179" fill="none"><defs><path id="b" fill-rule="evenodd" d="M266 171c45.287 0 82-36.713 82-82 0-45.2873-36.713-82-82-82s-82 36.7127-82 82c0 45.287 36.713 82 82 82Zm-73.765-84.3093-2.809 2.8097 2.849 2.8488c1.701 38.0938 32.282 68.6748 70.376 70.3758l3.849 3.85 3.904-3.904c37.251-2.193 67.074-32.016 69.267-69.267l3.904-3.9039-3.85-3.8493c-1.701-38.094-32.282-68.6747-70.376-70.3761l-2.849-2.8492-2.81 2.81c-38.923 1.1966-70.258 32.5321-71.455 71.4552Z" clip-rule="evenodd"/><path id="c" fill-rule="evenodd" d="M323 33H210v113h113V33Zm-105 8h97v97h-97V41Z" clip-rule="evenodd"/><path id="d" d="m306.5 41-40-40-40 40h11.426L266.5 12.4256 295.075 41H306.5Zm8.5 19.9255 28.575 28.5746L315 118.075V129.5l40-40-40-40v11.4255ZM295.075 138 266.5 166.575 237.925 138H226.5l40 40 40-40h-11.425ZM218 118.075l-28.574-28.5746L218 60.926V49.5l-40 40 40 40v-11.425Z"/><path id="e" fill-rule="evenodd" d="M444 171c45.287 0 82-36.713 82-82 0-45.2873-36.713-82-82-82s-82 36.7127-82 82c0 45.287 36.713 82 82 82Zm-73.765-84.3093-2.809 2.8097 2.849 2.8488c1.701 38.0938 32.282 68.6748 70.376 70.3758l3.849 3.85 3.904-3.904c37.251-2.193 67.074-32.016 69.267-69.267l3.904-3.9039-3.85-3.8493c-1.701-38.094-32.282-68.6747-70.376-70.3761l-2.849-2.8492-2.81 2.81c-38.923 1.1966-70.258 32.5321-71.455 71.4552Z" clip-rule="evenodd"/><path id="f" fill-rule="evenodd" d="M501 33H388v113h113V33Zm-105 8h97v97h-97V41Z" clip-rule="evenodd"/><path id="g" d="m484.5 41-40-40-40 40h11.426L444.5 12.4256 473.075 41H484.5Zm8.5 19.9255 28.575 28.5746L493 118.075V129.5l40-40-40-40v11.4255ZM473.075 138 444.5 166.575 415.925 138H404.5l40 40 40-40h-11.425ZM396 118.075l-28.574-28.5746L396 60.926V49.5l-40 40 40 40v-11.425Z"/><path id="h" fill-rule="evenodd" d="M622 171c45.287 0 82-36.713 82-82 0-45.2873-36.713-82-82-82s-82 36.7127-82 82c0 45.287 36.713 82 82 82Zm-73.765-84.3093-2.809 2.8097 2.849 2.8488c1.701 38.0938 32.282 68.6748 70.376 70.3758l3.849 3.85 3.904-3.904c37.251-2.193 67.074-32.016 69.267-69.267l3.904-3.9039-3.85-3.8493c-1.701-38.094-32.282-68.6747-70.376-70.3761l-2.849-2.8492-2.81 2.81c-38.923 1.1966-70.258 32.5321-71.455 71.4552Z" clip-rule="evenodd"/><path id="i" fill-rule="evenodd" d="M679 33H566v113h113V33Zm-105 8h97v97h-97V41Z" clip-rule="evenodd"/><path id="j" d="m662.5 41-40-40-40 40h11.426L622.5 12.4256 651.075 41H662.5Zm8.5 19.9255 28.575 28.5746L671 118.075V129.5l40-40-40-40v11.4255ZM651.075 138 622.5 166.575 593.925 138H582.5l40 40 40-40h-11.425ZM574 118.075l-28.574-28.5746L574 60.926V49.5l-40 40 40 40v-11.425Z"/><path id="k" fill-rule="evenodd" d="M800 171c45.287 0 82-36.713 82-82 0-45.2873-36.713-82-82-82s-82 36.7127-82 82c0 45.287 36.713 82 82 82Zm-73.765-84.3093-2.809 2.8097 2.849 2.8488c1.701 38.0938 32.282 68.6748 70.376 70.3758l3.849 3.85 3.904-3.904c37.251-2.193 67.074-32.016 69.267-69.267l3.904-3.9039-3.85-3.8493c-1.701-38.094-32.282-68.6747-70.376-70.3761l-2.849-2.8492-2.81 2.81c-38.923 1.1966-70.258 32.5321-71.455 71.4552Z" clip-rule="evenodd"/><path id="l" fill-rule="evenodd" d="M857 33H744v113h113V33Zm-105 8h97v97h-97V41Z" clip-rule="evenodd"/><path id="m" d="m840.5 41-40-40-40 40h11.426L800.5 12.4256 829.075 41H840.5Zm8.5 19.9255 28.575 28.5746L849 118.075V129.5l40-40-40-40v11.4255ZM829.075 138 800.5 166.575 771.925 138H760.5l40 40 40-40h-11.425ZM752 118.075l-28.574-28.5746L752 60.926V49.5l-40 40 40 40v-11.425Z"/><path id="n" fill-rule="evenodd" d="M978 171c45.29 0 82-36.713 82-82 0-45.2873-36.71-82-82-82-45.287 0-82 36.7127-82 82 0 45.287 36.713 82 82 82Zm-73.765-84.3093-2.809 2.8097 2.849 2.8488c1.701 38.0938 32.282 68.6748 70.376 70.3758l3.849 3.85 3.904-3.904c37.256-2.193 67.076-32.016 69.266-69.267l3.9-3.9039-3.84-3.8493c-1.71-38.094-32.29-68.6747-70.381-70.3761l-2.849-2.8492-2.81 2.81c-38.923 1.1966-70.258 32.5321-71.455 71.4552Z" clip-rule="evenodd"/><path id="o" fill-rule="evenodd" d="M1035 33H922v113h113V33Zm-105 8h97v97h-97V41Z" clip-rule="evenodd"/><path id="p" d="m1018.5 41-40-40-40 40h11.426L978.5 12.4256 1007.07 41h11.43Zm8.5 19.9255 28.57 28.5746L1027 118.075V129.5l40-40-40-40v11.4255ZM1007.07 138l-28.57 28.575L949.925 138H938.5l40 40 40-40h-11.43ZM930 118.075l-28.574-28.5746L930 60.926V49.5l-40 40 40 40v-11.425Z"/><path id="q" fill-rule="evenodd" d="M1156 171c45.29 0 82-36.713 82-82 0-45.2873-36.71-82-82-82s-82 36.7127-82 82c0 45.287 36.71 82 82 82Zm-73.76-84.3093-2.81 2.8097 2.84 2.8488c1.71 38.0938 32.29 68.6748 70.38 70.3758l3.85 3.85 3.9-3.904c37.26-2.193 67.08-32.016 69.27-69.267l3.9-3.9039-3.84-3.8493c-1.71-38.094-32.29-68.6747-70.38-70.3761l-2.85-2.8492-2.81 2.81c-38.92 1.1966-70.26 32.5321-71.45 71.4552Z" clip-rule="evenodd"/><path id="r" fill-rule="evenodd" d="M1213 33h-113v113h113V33Zm-105 8h97v97h-97V41Z" clip-rule="evenodd"/><path id="s" d="m1196.5 41-40-40-40 40h11.43l28.57-28.5744L1185.07 41h11.43Zm8.5 19.9255 28.57 28.5746L1205 118.075V129.5l40-40-40-40v11.4255ZM1185.07 138l-28.57 28.575L1127.93 138h-11.43l40 40 40-40h-11.43ZM1108 118.075l-28.57-28.5746L1108 60.926V49.5l-40 40 40 40v-11.425Z"/><path id="t" fill-rule="evenodd" d="M1334 171c45.29 0 82-36.713 82-82 0-45.2873-36.71-82-82-82s-82 36.7127-82 82c0 45.287 36.71 82 82 82Zm-73.76-84.3093-2.81 2.8097 2.84 2.8488c1.71 38.0938 32.29 68.6748 70.38 70.3758l3.85 3.85 3.9-3.904c37.26-2.193 67.08-32.016 69.27-69.267l3.9-3.9039-3.84-3.8493c-1.71-38.094-32.29-68.6747-70.38-70.3761l-2.85-2.8492-2.81 2.81c-38.92 1.1966-70.26 32.5321-71.45 71.4552Z" clip-rule="evenodd"/><path id="u" fill-rule="evenodd" d="M1391 33h-113v113h113V33Zm-105 8h97v97h-97V41Z" clip-rule="evenodd"/><path id="v" d="m1374.5 41-40-40-40 40h11.43l28.57-28.5744L1363.07 41h11.43Zm8.5 19.9255 28.57 28.5746L1383 118.075V129.5l40-40-40-40v11.4255ZM1363.07 138l-28.57 28.575L1305.93 138h-11.43l40 40 40-40h-11.43ZM1286 118.075l-28.57-28.5746L1286 60.926V49.5l-40 40 40 40v-11.425Z"/><path id="w" fill-rule="evenodd" d="M1512 171c45.29 0 82-36.713 82-82 0-45.2873-36.71-82-82-82s-82 36.7127-82 82c0 45.287 36.71 82 82 82Zm-73.76-84.3093-2.81 2.8097 2.84 2.8488c1.71 38.0938 32.29 68.6748 70.38 70.3758l3.85 3.85 3.9-3.904c37.26-2.193 67.08-32.016 69.27-69.267l3.9-3.9039-3.84-3.8493c-1.71-38.094-32.29-68.6747-70.38-70.3761l-2.85-2.8492-2.81 2.81c-38.92 1.1966-70.26 32.5321-71.45 71.4552Z" clip-rule="evenodd"/><path id="x" fill-rule="evenodd" d="M1569 33h-113v113h113V33Zm-105 8h97v97h-97V41Z" clip-rule="evenodd"/><path id="y" d="m1552.5 41-40-40-40 40h11.43l28.57-28.5744L1541.07 41h11.43Zm8.5 19.9255 28.57 28.5746L1561 118.075V129.5l40-40-40-40v11.4255ZM1541.07 138l-28.57 28.575L1483.93 138h-11.43l40 40 40-40h-11.43ZM1464 118.075l-28.57-28.5746L1464 60.926V49.5l-40 40 40 40v-11.425Z"/><path id="z" fill-rule="evenodd" d="M1690 171c45.29 0 82-36.713 82-82 0-45.2873-36.71-82-82-82s-82 36.7127-82 82c0 45.287 36.71 82 82 82Zm-73.76-84.3093-2.81 2.8097 2.84 2.8488c1.71 38.0938 32.29 68.6748 70.38 70.3758l3.85 3.85 3.9-3.904c37.26-2.193 67.08-32.016 69.27-69.267l3.9-3.9039-3.84-3.8493c-1.71-38.094-32.29-68.6747-70.38-70.3761l-2.85-2.8492-2.81 2.81c-38.92 1.1966-70.26 32.5321-71.45 71.4552Z" clip-rule="evenodd"/><path id="A" fill-rule="evenodd" d="M1747 33h-113v113h113V33Zm-105 8h97v97h-97V41Z" clip-rule="evenodd"/><path id="B" d="m1730.5 41-40-40-40 40h11.43l28.57-28.5744L1719.07 41h11.43Zm8.5 19.9255 28.57 28.5746L1739 118.075V129.5l40-40-40-40v11.4255ZM1719.07 138l-28.57 28.575L1661.93 138h-11.43l40 40 40-40h-11.43ZM1642 118.075l-28.57-28.5746L1642 60.926V49.5l-40 40 40 40v-11.425Z"/><path id="C" fill-rule="evenodd" d="M1868 171c45.29 0 82-36.713 82-82 0-45.2873-36.71-82-82-82s-82 36.7127-82 82c0 45.287 36.71 82 82 82Zm-73.76-84.3093-2.81 2.8097 2.84 2.8488c1.71 38.0938 32.29 68.6748 70.38 70.3758l3.85 3.85 3.9-3.904c37.26-2.193 67.08-32.016 69.27-69.267l3.9-3.9039-3.84-3.8493c-1.71-38.094-32.29-68.6747-70.38-70.3761l-2.85-2.8492-2.81 2.81c-38.92 1.1966-70.26 32.5321-71.45 71.4552Z" clip-rule="evenodd"/><path id="D" fill-rule="evenodd" d="M1925 33h-113v113h113V33Zm-105 8h97v97h-97V41Z" clip-rule="evenodd"/><path id="E" d="m1908.5 41-40-40-40 40h11.43l28.57-28.5744L1897.07 41h11.43Zm8.5 19.9255 28.57 28.5746L1917 118.075V129.5l40-40-40-40v11.4255ZM1897.07 138l-28.57 28.575L1839.93 138h-11.43l40 40 40-40h-11.43ZM1820 118.075l-28.57-28.5746L1820 60.926V49.5l-40 40 40 40v-11.425Z"/><path id="F" fill-rule="evenodd" d="M2046 171c45.29 0 82-36.713 82-82 0-45.2873-36.71-82-82-82s-82 36.7127-82 82c0 45.287 36.71 82 82 82Zm-73.76-84.3093-2.81 2.8097 2.84 2.8488c1.71 38.0938 32.29 68.6748 70.38 70.3758l3.85 3.85 3.9-3.904c37.26-2.193 67.08-32.016 69.27-69.267l3.9-3.9039-3.84-3.8493c-1.71-38.094-32.29-68.6747-70.38-70.3761l-2.85-2.8492-2.81 2.81c-38.92 1.1966-70.26 32.5321-71.45 71.4552Z" clip-rule="evenodd"/><path id="G" fill-rule="evenodd" d="M2103 33h-113v113h113V33Zm-105 8h97v97h-97V41Z" clip-rule="evenodd"/><path id="H" d="m2086.5 41-40-40-40 40h11.43l28.57-28.5744L2075.07 41h11.43Zm8.5 19.9255 28.57 28.5746L2095 118.075V129.5l40-40-40-40v11.4255ZM2075.07 138l-28.57 28.575L2017.93 138h-11.43l40 40 40-40h-11.43ZM1998 118.075l-28.57-28.5746L1998 60.926V49.5l-40 40 40 40v-11.425Z"/><path id="I" fill-rule="evenodd" d="M2224 171c45.29 0 82-36.713 82-82 0-45.2873-36.71-82-82-82s-82 36.7127-82 82c0 45.287 36.71 82 82 82Zm-73.76-84.3093-2.81 2.8097 2.84 2.8488c1.71 38.0938 32.29 68.6748 70.38 70.3758l3.85 3.85 3.9-3.904c37.26-2.193 67.08-32.016 69.27-69.267l3.9-3.9039-3.84-3.8493c-1.71-38.094-32.29-68.6747-70.38-70.3761l-2.85-2.8492-2.81 2.81c-38.92 1.1966-70.26 32.5321-71.45 71.4552Z" clip-rule="evenodd"/><path id="J" fill-rule="evenodd" d="M2281 33h-113v113h113V33Zm-105 8h97v97h-97V41Z" clip-rule="evenodd"/><path id="K" d="m2264.5 41-40-40-40 40h11.43l28.57-28.5744L2253.07 41h11.43Zm8.5 19.9255 28.57 28.5746L2273 118.075V129.5l40-40-40-40v11.4255ZM2253.07 138l-28.57 28.575L2195.93 138h-11.43l40 40 40-40h-11.43ZM2176 118.075l-28.57-28.5746L2176 60.926V49.5l-40 40 40 40v-11.425Z"/><path id="L" fill-rule="evenodd" d="M2402 171c45.29 0 82-36.713 82-82 0-45.2873-36.71-82-82-82s-82 36.7127-82 82c0 45.287 36.71 82 82 82Zm-73.76-84.3093-2.81 2.8097 2.84 2.8488c1.71 38.0938 32.29 68.6748 70.38 70.3758l3.85 3.85 3.9-3.904c37.26-2.193 67.08-32.016 69.27-69.267l3.9-3.9039-3.84-3.8493c-1.71-38.094-32.29-68.6747-70.38-70.3761l-2.85-2.8492-2.81 2.81c-38.92 1.1966-70.26 32.5321-71.45 71.4552Z" clip-rule="evenodd"/><path id="M" fill-rule="evenodd" d="M2459 33h-113v113h113V33Zm-105 8h97v97h-97V41Z" clip-rule="evenodd"/><path id="N" d="m2442.5 41-40-40-40 40h11.43l28.57-28.5744L2431.07 41h11.43Zm8.5 19.9255 28.57 28.5746L2451 118.075V129.5l40-40-40-40v11.4255ZM2431.07 138l-28.57 28.575L2373.93 138h-11.43l40 40 40-40h-11.43ZM2354 118.075l-28.57-28.5746L2354 60.926V49.5l-40 40 40 40v-11.425Z"/><path id="O" fill-rule="evenodd" d="M2580 171c45.29 0 82-36.713 82-82 0-45.2873-36.71-82-82-82s-82 36.7127-82 82c0 45.287 36.71 82 82 82Zm-73.76-84.3093-2.81 2.8097 2.84 2.8488c1.71 38.0938 32.29 68.6748 70.38 70.3758l3.85 3.85 3.9-3.904c37.26-2.193 67.08-32.016 69.27-69.267l3.9-3.9039-3.84-3.8493c-1.71-38.094-32.29-68.6747-70.38-70.3761l-2.85-2.8492-2.81 2.81c-38.92 1.1966-70.26 32.5321-71.45 71.4552Z" clip-rule="evenodd"/><path id="P" fill-rule="evenodd" d="M2637 33h-113v113h113V33Zm-105 8h97v97h-97V41Z" clip-rule="evenodd"/><path id="Q" d="m2620.5 41-40-40-40 40h11.43l28.57-28.5744L2609.07 41h11.43Zm8.5 19.9255 28.57 28.5746L2629 118.075V129.5l40-40-40-40v11.4255ZM2609.07 138l-28.57 28.575L2551.93 138h-11.43l40 40 40-40h-11.43ZM2532 118.075l-28.57-28.5746L2532 60.926V49.5l-40 40 40 40v-11.425Z"/><path id="R" fill-rule="evenodd" d="M2758 171c45.29 0 82-36.713 82-82 0-45.2873-36.71-82-82-82s-82 36.7127-82 82c0 45.287 36.71 82 82 82Zm-73.76-84.3093-2.81 2.8097 2.84 2.8488c1.71 38.0938 32.29 68.6748 70.38 70.3758l3.85 3.85 3.9-3.904c37.26-2.193 67.08-32.016 69.27-69.267l3.9-3.9039-3.84-3.8493c-1.71-38.094-32.29-68.6747-70.38-70.3761l-2.85-2.8492-2.81 2.81c-38.92 1.1966-70.26 32.5321-71.45 71.4552Z" clip-rule="evenodd"/><path id="S" fill-rule="evenodd" d="M2815 33h-113v113h113V33Zm-105 8h97v97h-97V41Z" clip-rule="evenodd"/><path id="T" d="m2798.5 41-40-40-40 40h11.43l28.57-28.5744L2787.07 41h11.43Zm8.5 19.9255 28.57 28.5746L2807 118.075V129.5l40-40-40-40v11.4255ZM2787.07 138l-28.57 28.575L2729.93 138h-11.43l40 40 40-40h-11.43ZM2710 118.075l-28.57-28.5746L2710 60.926V49.5l-40 40 40 40v-11.425Z"/><path id="U" fill-rule="evenodd" d="M2936 171c45.29 0 82-36.713 82-82 0-45.2873-36.71-82-82-82s-82 36.7127-82 82c0 45.287 36.71 82 82 82Zm-73.76-84.3093-2.81 2.8097 2.84 2.8488c1.71 38.0938 32.29 68.6748 70.38 70.3758l3.85 3.85 3.9-3.904c37.26-2.193 67.08-32.016 69.27-69.267l3.9-3.9039-3.84-3.8493c-1.71-38.094-32.29-68.6747-70.38-70.3761l-2.85-2.8492-2.81 2.81c-38.92 1.1966-70.26 32.5321-71.45 71.4552Z" clip-rule="evenodd"/><path id="V" fill-rule="evenodd" d="M2993 33h-113v113h113V33Zm-105 8h97v97h-97V41Z" clip-rule="evenodd"/><path id="W" d="m2976.5 41-40-40-40 40h11.43l28.57-28.5744L2965.07 41h11.43Zm8.5 19.9255 28.57 28.5746L2985 118.075V129.5l40-40-40-40v11.4255ZM2965.07 138l-28.57 28.575L2907.93 138h-11.43l40 40 40-40h-11.43ZM2888 118.075l-28.57-28.5746L2888 60.926V49.5l-40 40 40 40v-11.425Z"/><path id="X" fill-rule="evenodd" d="M3114 171c45.29 0 82-36.713 82-82 0-45.2873-36.71-82-82-82s-82 36.7127-82 82c0 45.287 36.71 82 82 82Zm-73.76-84.3093-2.81 2.8097 2.84 2.8488c1.71 38.0938 32.29 68.6748 70.38 70.3758l3.85 3.85 3.9-3.904c37.26-2.193 67.08-32.016 69.27-69.267l3.9-3.9039-3.84-3.8493c-1.71-38.094-32.29-68.6747-70.38-70.3761l-2.85-2.8492-2.81 2.81c-38.92 1.1966-70.26 32.5321-71.45 71.4552Z" clip-rule="evenodd"/><path id="Y" fill-rule="evenodd" d="M3171 33h-113v113h113V33Zm-105 8h97v97h-97V41Z" clip-rule="evenodd"/><path id="Z" d="m3154.5 41-40-40-40 40h11.43l28.57-28.5744L3143.07 41h11.43Zm8.5 19.9255 28.57 28.5746L3163 118.075V129.5l40-40-40-40v11.4255ZM3143.07 138l-28.57 28.575L3085.93 138h-11.43l40 40 40-40h-11.43ZM3066 118.075l-28.57-28.5746L3066 60.926V49.5l-40 40 40 40v-11.425Z"/><path id="aa" fill-rule="evenodd" d="M3292 171c45.29 0 82-36.713 82-82 0-45.2873-36.71-82-82-82s-82 36.7127-82 82c0 45.287 36.71 82 82 82Zm-73.76-84.3093-2.81 2.8097 2.84 2.8488c1.71 38.0938 32.29 68.6748 70.38 70.3758l3.85 3.85 3.9-3.904c37.26-2.193 67.08-32.016 69.27-69.267l3.9-3.9039-3.84-3.8493c-1.71-38.094-32.29-68.6747-70.38-70.3761l-2.85-2.8492-2.81 2.81c-38.92 1.1966-70.26 32.5321-71.45 71.4552Z" clip-rule="evenodd"/><path id="ab" fill-rule="evenodd" d="M3349 33h-113v113h113V33Zm-105 8h97v97h-97V41Z" clip-rule="evenodd"/><path id="ac" d="m3332.5 41-40-40-40 40h11.43l28.57-28.5744L3321.07 41h11.43Zm8.5 19.9255 28.57 28.5746L3341 118.075V129.5l40-40-40-40v11.4255ZM3321.07 138l-28.57 28.575L3263.93 138h-11.43l40 40 40-40h-11.43ZM3244 118.075l-28.57-28.5746L3244 60.926V49.5l-40 40 40 40v-11.425Z"/></defs><g fill="#767A86" clip-path="url(#a)" opacity=".02"><path fill-rule="evenodd" d="M88 171c45.287 0 82-36.713 82-82 0-45.2873-36.713-82-82-82C42.7127 7 6 43.7127 6 89c0 45.287 36.7127 82 82 82ZM14.2354 86.6907l-2.8096 2.8097 2.8488 2.8488c1.7015 38.0938 32.2822 68.6748 70.3761 70.3758l3.8495 3.85 3.904-3.904c37.2508-2.193 67.0738-32.016 69.2668-69.267l3.904-3.9039-3.85-3.8493c-1.701-38.094-32.282-68.6747-70.3757-70.3761l-2.8491-2.8492-2.8099 2.81c-38.923 1.1966-70.2585 32.5321-71.4549 71.4552Z" clip-rule="evenodd"/><path fill-rule="evenodd" d="M145 33H32v113h113V33ZM40 41h97v97H40V41Z" clip-rule="evenodd"/><path d="m128.5 41-40-40-40 40h11.4259l28.5742-28.5744L117.075 41H128.5Zm8.5 19.9255 28.575 28.5746L137 118.075V129.5l40-40-40-40v11.4255ZM117.075 138l-28.5749 28.575L59.9253 138H48.5l40 40 40-40h-11.425ZM40 118.075 11.4257 89.5004 40 60.926V49.5l-40 40 40 40v-11.425Z"/><path fill-rule="evenodd" d="M177 82c45.287 0 82-36.7127 82-82s-36.713-82-82-82S95-45.2873 95 0s36.713 82 82 82ZM103.235-2.30933 100.426.500351l2.849 2.848869c1.701 38.09398 32.282 68.67468 70.376 70.37608l3.849 3.8495 3.904-3.9041c37.251-2.1924 67.074-32.0155 69.267-69.26673l3.904-3.903901-3.85-3.849309c-1.701-38.09396-32.282-68.67466-70.376-70.37606l-2.849-2.8492-2.81 2.81c-38.923 1.1966-70.258 32.5321-71.455 71.45517Z" clip-rule="evenodd"/><path fill-rule="evenodd" d="M234-56H121V57h113V-56Zm-105 8h97v97h-97v-97Z" clip-rule="evenodd"/><path d="m217.5-48-40-40-40 40h11.426L177.5-76.5744 206.075-48H217.5Zm8.5 19.9255L254.575.500137 226 29.0748V40.5l40-40-40-40v11.4255ZM206.075 49 177.5 77.5749 148.925 49H137.5l40 40 40-40h-11.425ZM129 29.0747 100.426.50042 129-28.074V-39.5L89 .5l40 40V29.0747Z"/><use xlink:href="#b" fill-rule="evenodd" clip-rule="evenodd"/><use xlink:href="#c" fill-rule="evenodd" clip-rule="evenodd"/><use xlink:href="#d"/><path fill-rule="evenodd" d="M177 260c45.287 0 82-36.713 82-82s-36.713-82-82-82-82 36.713-82 82 36.713 82 82 82Zm-73.765-84.309-2.809 2.809 2.849 2.849c1.701 38.094 32.282 68.675 70.376 70.376l3.849 3.85 3.904-3.904c37.251-2.193 67.074-32.016 69.267-69.267l3.904-3.904-3.85-3.849c-1.701-38.094-32.282-68.675-70.376-70.376l-2.849-2.849-2.81 2.809c-38.923 1.197-70.258 32.533-71.455 71.456Z" clip-rule="evenodd"/><path fill-rule="evenodd" d="M234 122H121v113h113V122Zm-105 8h97v97h-97v-97Z" clip-rule="evenodd"/><path d="m217.5 130-40-40-40 40h11.426l28.574-28.574L206.075 130H217.5Zm8.5 19.926 28.575 28.574L226 207.075V218.5l40-40-40-40v11.426ZM206.075 227 177.5 255.575 148.925 227H137.5l40 40 40-40h-11.425ZM129 207.075 100.426 178.5 129 149.926V138.5l-40 40 40 40v-11.425Z"/><use xlink:href="#b" fill-rule="evenodd" clip-rule="evenodd"/><use xlink:href="#c" fill-rule="evenodd" clip-rule="evenodd"/><use xlink:href="#d"/><path fill-rule="evenodd" d="M355 82c45.287 0 82-36.7127 82-82s-36.713-82-82-82-82 36.7127-82 82 36.713 82 82 82ZM281.235-2.30933 278.426.500351l2.849 2.848869c1.701 38.09398 32.282 68.67468 70.376 70.37608l3.849 3.8495 3.904-3.9041c37.251-2.1924 67.074-32.0155 69.267-69.26673l3.904-3.903901-3.85-3.849309c-1.701-38.09396-32.282-68.67466-70.376-70.37606l-2.849-2.8492-2.81 2.81c-38.923 1.1966-70.258 32.5321-71.455 71.45517Z" clip-rule="evenodd"/><path fill-rule="evenodd" d="M412-56H299V57h113V-56Zm-105 8h97v97h-97v-97Z" clip-rule="evenodd"/><path d="m395.5-48-40-40-40 40h11.426L355.5-76.5744 384.075-48H395.5Zm8.5 19.9255L432.575.500137 404 29.0748V40.5l40-40-40-40v11.4255ZM384.075 49 355.5 77.5749 326.925 49H315.5l40 40 40-40h-11.425ZM307 29.0747 278.426.50042 307-28.074V-39.5l-40 40 40 40V29.0747Z"/><use xlink:href="#e" fill-rule="evenodd" clip-rule="evenodd"/><use xlink:href="#f" fill-rule="evenodd" clip-rule="evenodd"/><use xlink:href="#g"/><path fill-rule="evenodd" d="M355 260c45.287 0 82-36.713 82-82s-36.713-82-82-82-82 36.713-82 82 36.713 82 82 82Zm-73.765-84.309-2.809 2.809 2.849 2.849c1.701 38.094 32.282 68.675 70.376 70.376l3.849 3.85 3.904-3.904c37.251-2.193 67.074-32.016 69.267-69.267l3.904-3.904-3.85-3.849c-1.701-38.094-32.282-68.675-70.376-70.376l-2.849-2.849-2.81 2.809c-38.923 1.197-70.258 32.533-71.455 71.456Z" clip-rule="evenodd"/><path fill-rule="evenodd" d="M412 122H299v113h113V122Zm-105 8h97v97h-97v-97Z" clip-rule="evenodd"/><path d="m395.5 130-40-40-40 40h11.426l28.574-28.574L384.075 130H395.5Zm8.5 19.926 28.575 28.574L404 207.075V218.5l40-40-40-40v11.426ZM384.075 227 355.5 255.575 326.925 227H315.5l40 40 40-40h-11.425ZM307 207.075 278.426 178.5 307 149.926V138.5l-40 40 40 40v-11.425Z"/><use xlink:href="#e" fill-rule="evenodd" clip-rule="evenodd"/><use xlink:href="#f" fill-rule="evenodd" clip-rule="evenodd"/><use xlink:href="#g"/><path fill-rule="evenodd" d="M533 82c45.287 0 82-36.7127 82-82s-36.713-82-82-82-82 36.7127-82 82 36.713 82 82 82ZM459.235-2.30933 456.426.500351l2.849 2.848869c1.701 38.09398 32.282 68.67468 70.376 70.37608l3.849 3.8495 3.904-3.9041c37.251-2.1924 67.074-32.0155 69.267-69.26673l3.904-3.903901-3.85-3.849309c-1.701-38.09396-32.282-68.67466-70.376-70.37606l-2.849-2.8492-2.81 2.81c-38.923 1.1966-70.258 32.5321-71.455 71.45517Z" clip-rule="evenodd"/><path fill-rule="evenodd" d="M590-56H477V57h113V-56Zm-105 8h97v97h-97v-97Z" clip-rule="evenodd"/><path d="m573.5-48-40-40-40 40h11.426L533.5-76.5744 562.075-48H573.5Zm8.5 19.9255L610.575.500137 582 29.0748V40.5l40-40-40-40v11.4255ZM562.075 49 533.5 77.5749 504.925 49H493.5l40 40 40-40h-11.425ZM485 29.0747 456.426.50042 485-28.074V-39.5l-40 40 40 40V29.0747Z"/><use xlink:href="#h" fill-rule="evenodd" clip-rule="evenodd"/><use xlink:href="#i" fill-rule="evenodd" clip-rule="evenodd"/><use xlink:href="#j"/><path fill-rule="evenodd" d="M533 260c45.287 0 82-36.713 82-82s-36.713-82-82-82-82 36.713-82 82 36.713 82 82 82Zm-73.765-84.309-2.809 2.809 2.849 2.849c1.701 38.094 32.282 68.675 70.376 70.376l3.849 3.85 3.904-3.904c37.251-2.193 67.074-32.016 69.267-69.267l3.904-3.904-3.85-3.849c-1.701-38.094-32.282-68.675-70.376-70.376l-2.849-2.849-2.81 2.809c-38.923 1.197-70.258 32.533-71.455 71.456Z" clip-rule="evenodd"/><path fill-rule="evenodd" d="M590 122H477v113h113V122Zm-105 8h97v97h-97v-97Z" clip-rule="evenodd"/><path d="m573.5 130-40-40-40 40h11.426l28.574-28.574L562.075 130H573.5Zm8.5 19.926 28.575 28.574L582 207.075V218.5l40-40-40-40v11.426ZM562.075 227 533.5 255.575 504.925 227H493.5l40 40 40-40h-11.425ZM485 207.075 456.426 178.5 485 149.926V138.5l-40 40 40 40v-11.425Z"/><use xlink:href="#h" fill-rule="evenodd" clip-rule="evenodd"/><use xlink:href="#i" fill-rule="evenodd" clip-rule="evenodd"/><use xlink:href="#j"/><path fill-rule="evenodd" d="M711 82c45.287 0 82-36.7127 82-82s-36.713-82-82-82-82 36.7127-82 82 36.713 82 82 82ZM637.235-2.30933 634.426.500351l2.849 2.848869c1.701 38.09398 32.282 68.67468 70.376 70.37608l3.849 3.8495 3.904-3.9041c37.251-2.1924 67.074-32.0155 69.267-69.26673l3.904-3.903901-3.85-3.849309c-1.701-38.09396-32.282-68.67466-70.376-70.37606l-2.849-2.8492-2.81 2.81c-38.923 1.1966-70.258 32.5321-71.455 71.45517Z" clip-rule="evenodd"/><path fill-rule="evenodd" d="M768-56H655V57h113V-56Zm-105 8h97v97h-97v-97Z" clip-rule="evenodd"/><path d="m751.5-48-40-40-40 40h11.426L711.5-76.5744 740.075-48H751.5Zm8.5 19.9255L788.575.500137 760 29.0748V40.5l40-40-40-40v11.4255ZM740.075 49 711.5 77.5749 682.925 49H671.5l40 40 40-40h-11.425ZM663 29.0747 634.426.50042 663-28.074V-39.5l-40 40 40 40V29.0747Z"/><use xlink:href="#k" fill-rule="evenodd" clip-rule="evenodd"/><use xlink:href="#l" fill-rule="evenodd" clip-rule="evenodd"/><use xlink:href="#m"/><path fill-rule="evenodd" d="M711 260c45.287 0 82-36.713 82-82s-36.713-82-82-82-82 36.713-82 82 36.713 82 82 82Zm-73.765-84.309-2.809 2.809 2.849 2.849c1.701 38.094 32.282 68.675 70.376 70.376l3.849 3.85 3.904-3.904c37.251-2.193 67.074-32.016 69.267-69.267l3.904-3.904-3.85-3.849c-1.701-38.094-32.282-68.675-70.376-70.376l-2.849-2.849-2.81 2.809c-38.923 1.197-70.258 32.533-71.455 71.456Z" clip-rule="evenodd"/><path fill-rule="evenodd" d="M768 122H655v113h113V122Zm-105 8h97v97h-97v-97Z" clip-rule="evenodd"/><path d="m751.5 130-40-40-40 40h11.426l28.574-28.574L740.075 130H751.5Zm8.5 19.926 28.575 28.574L760 207.075V218.5l40-40-40-40v11.426ZM740.075 227 711.5 255.575 682.925 227H671.5l40 40 40-40h-11.425ZM663 207.075 634.426 178.5 663 149.926V138.5l-40 40 40 40v-11.425Z"/><use xlink:href="#k" fill-rule="evenodd" clip-rule="evenodd"/><use xlink:href="#l" fill-rule="evenodd" clip-rule="evenodd"/><use xlink:href="#m"/><path fill-rule="evenodd" d="M889 82c45.287 0 82-36.7127 82-82s-36.713-82-82-82-82 36.7127-82 82 36.713 82 82 82ZM815.235-2.30933 812.426.500351l2.849 2.848869c1.701 38.09398 32.282 68.67468 70.376 70.37608l3.849 3.8495 3.904-3.9041c37.251-2.1924 67.074-32.0155 69.267-69.26673l3.904-3.903901-3.85-3.849309c-1.701-38.09396-32.282-68.67466-70.376-70.37606l-2.849-2.8492-2.81 2.81c-38.923 1.1966-70.258 32.5321-71.455 71.45517Z" clip-rule="evenodd"/><path fill-rule="evenodd" d="M946-56H833V57h113V-56Zm-105 8h97v97h-97v-97Z" clip-rule="evenodd"/><path d="m929.5-48-40-40-40 40h11.426L889.5-76.5744 918.075-48H929.5Zm8.5 19.9255L966.575.500137 938 29.0748V40.5l40-40-40-40v11.4255ZM918.075 49 889.5 77.5749 860.925 49H849.5l40 40 40-40h-11.425ZM841 29.0747 812.426.50042 841-28.074V-39.5l-40 40 40 40V29.0747Z"/><use xlink:href="#n" fill-rule="evenodd" clip-rule="evenodd"/><use xlink:href="#o" fill-rule="evenodd" clip-rule="evenodd"/><use xlink:href="#p"/><path fill-rule="evenodd" d="M889 260c45.287 0 82-36.713 82-82s-36.713-82-82-82-82 36.713-82 82 36.713 82 82 82Zm-73.765-84.309-2.809 2.809 2.849 2.849c1.701 38.094 32.282 68.675 70.376 70.376l3.849 3.85 3.904-3.904c37.251-2.193 67.074-32.016 69.267-69.267l3.904-3.904-3.85-3.849c-1.701-38.094-32.282-68.675-70.376-70.376l-2.849-2.849-2.81 2.809c-38.923 1.197-70.258 32.533-71.455 71.456Z" clip-rule="evenodd"/><path fill-rule="evenodd" d="M946 122H833v113h113V122Zm-105 8h97v97h-97v-97Z" clip-rule="evenodd"/><path d="m929.5 130-40-40-40 40h11.426l28.574-28.574L918.075 130H929.5Zm8.5 19.926 28.575 28.574L938 207.075V218.5l40-40-40-40v11.426ZM918.075 227 889.5 255.575 860.925 227H849.5l40 40 40-40h-11.425ZM841 207.075 812.426 178.5 841 149.926V138.5l-40 40 40 40v-11.425Z"/><use xlink:href="#n" fill-rule="evenodd" clip-rule="evenodd"/><use xlink:href="#o" fill-rule="evenodd" clip-rule="evenodd"/><use xlink:href="#p"/><path fill-rule="evenodd" d="M1067 82c45.29 0 82-36.7127 82-82s-36.71-82-82-82-82 36.7127-82 82 36.71 82 82 82ZM993.235-2.30933 990.426.500351l2.849 2.848869c1.701 38.09398 32.285 68.67468 70.375 70.37608l3.85 3.8495 3.9-3.9041c37.26-2.1924 67.08-32.0155 69.27-69.26673l3.9-3.903901-3.84-3.849309c-1.71-38.09396-32.29-68.67466-70.38-70.37606l-2.85-2.8492-2.81 2.81c-38.92 1.1966-70.258 32.5321-71.455 71.45517Z" clip-rule="evenodd"/><path fill-rule="evenodd" d="M1124-56h-113V57h113V-56Zm-105 8h97v97h-97v-97Z" clip-rule="evenodd"/><path d="m1107.5-48-40-40-40 40h11.43l28.57-28.5744L1096.07-48h11.43Zm8.5 19.9255L1144.57.500137 1116 29.0748V40.5l40-40-40-40v11.4255ZM1096.07 49l-28.57 28.5749L1038.93 49h-11.43l40 40 40-40h-11.43ZM1019 29.0747 990.426.50042 1019-28.074V-39.5l-40 40 40 40V29.0747Z"/><use xlink:href="#q" fill-rule="evenodd" clip-rule="evenodd"/><use xlink:href="#r" fill-rule="evenodd" clip-rule="evenodd"/><use xlink:href="#s"/><path fill-rule="evenodd" d="M1067 260c45.29 0 82-36.713 82-82s-36.71-82-82-82-82 36.713-82 82 36.71 82 82 82Zm-73.765-84.309-2.809 2.809 2.849 2.849c1.701 38.094 32.285 68.675 70.375 70.376l3.85 3.85 3.9-3.904c37.26-2.193 67.08-32.016 69.27-69.267l3.9-3.904-3.84-3.849c-1.71-38.094-32.29-68.675-70.38-70.376l-2.85-2.849-2.81 2.809c-38.92 1.197-70.258 32.533-71.455 71.456Z" clip-rule="evenodd"/><path fill-rule="evenodd" d="M1124 122h-113v113h113V122Zm-105 8h97v97h-97v-97Z" clip-rule="evenodd"/><path d="m1107.5 130-40-40-40 40h11.43l28.57-28.574L1096.07 130h11.43Zm8.5 19.926 28.57 28.574-28.57 28.575V218.5l40-40-40-40v11.426ZM1096.07 227l-28.57 28.575L1038.93 227h-11.43l40 40 40-40h-11.43ZM1019 207.075 990.426 178.5 1019 149.926V138.5l-40 40 40 40v-11.425Z"/><use xlink:href="#q" fill-rule="evenodd" clip-rule="evenodd"/><use xlink:href="#r" fill-rule="evenodd" clip-rule="evenodd"/><use xlink:href="#s"/><path fill-rule="evenodd" d="M1245 82c45.29 0 82-36.7127 82-82s-36.71-82-82-82-82 36.7127-82 82 36.71 82 82 82Zm-73.76-84.30933-2.81 2.809681 2.84 2.848869c1.71 38.09398 32.29 68.67468 70.38 70.37608l3.85 3.8495 3.9-3.9041c37.26-2.1924 67.08-32.0155 69.27-69.26673l3.9-3.903901-3.84-3.849309c-1.71-38.09396-32.29-68.67466-70.38-70.37606l-2.85-2.8492-2.81 2.81c-38.92 1.1966-70.26 32.5321-71.45 71.45517Z" clip-rule="evenodd"/><path fill-rule="evenodd" d="M1302-56h-113V57h113V-56Zm-105 8h97v97h-97v-97Z" clip-rule="evenodd"/><path d="m1285.5-48-40-40-40 40h11.43l28.57-28.5744L1274.07-48h11.43Zm8.5 19.9255L1322.57.500137 1294 29.0748V40.5l40-40-40-40v11.4255ZM1274.07 49l-28.57 28.5749L1216.93 49h-11.43l40 40 40-40h-11.43ZM1197 29.0747 1168.43.50042 1197-28.074V-39.5l-40 40 40 40V29.0747Z"/><use xlink:href="#t" fill-rule="evenodd" clip-rule="evenodd"/><use xlink:href="#u" fill-rule="evenodd" clip-rule="evenodd"/><use xlink:href="#v"/><path fill-rule="evenodd" d="M1245 260c45.29 0 82-36.713 82-82s-36.71-82-82-82-82 36.713-82 82 36.71 82 82 82Zm-73.76-84.309-2.81 2.809 2.84 2.849c1.71 38.094 32.29 68.675 70.38 70.376l3.85 3.85 3.9-3.904c37.26-2.193 67.08-32.016 69.27-69.267l3.9-3.904-3.84-3.849c-1.71-38.094-32.29-68.675-70.38-70.376l-2.85-2.849-2.81 2.809c-38.92 1.197-70.26 32.533-71.45 71.456Z" clip-rule="evenodd"/><path fill-rule="evenodd" d="M1302 122h-113v113h113V122Zm-105 8h97v97h-97v-97Z" clip-rule="evenodd"/><path d="m1285.5 130-40-40-40 40h11.43l28.57-28.574L1274.07 130h11.43Zm8.5 19.926 28.57 28.574-28.57 28.575V218.5l40-40-40-40v11.426ZM1274.07 227l-28.57 28.575L1216.93 227h-11.43l40 40 40-40h-11.43ZM1197 207.075l-28.57-28.575 28.57-28.574V138.5l-40 40 40 40v-11.425Z"/><use xlink:href="#t" fill-rule="evenodd" clip-rule="evenodd"/><use xlink:href="#u" fill-rule="evenodd" clip-rule="evenodd"/><use xlink:href="#v"/><path fill-rule="evenodd" d="M1423 82c45.29 0 82-36.7127 82-82s-36.71-82-82-82-82 36.7127-82 82 36.71 82 82 82Zm-73.76-84.30933-2.81 2.809681 2.84 2.848869c1.71 38.09398 32.29 68.67468 70.38 70.37608l3.85 3.8495 3.9-3.9041c37.26-2.1924 67.08-32.0155 69.27-69.26673l3.9-3.903901-3.84-3.849309c-1.71-38.09396-32.29-68.67466-70.38-70.37606l-2.85-2.8492-2.81 2.81c-38.92 1.1966-70.26 32.5321-71.45 71.45517Z" clip-rule="evenodd"/><path fill-rule="evenodd" d="M1480-56h-113V57h113V-56Zm-105 8h97v97h-97v-97Z" clip-rule="evenodd"/><path d="m1463.5-48-40-40-40 40h11.43l28.57-28.5744L1452.07-48h11.43Zm8.5 19.9255L1500.57.500137 1472 29.0748V40.5l40-40-40-40v11.4255ZM1452.07 49l-28.57 28.5749L1394.93 49h-11.43l40 40 40-40h-11.43ZM1375 29.0747 1346.43.50042 1375-28.074V-39.5l-40 40 40 40V29.0747Z"/><use xlink:href="#w" fill-rule="evenodd" clip-rule="evenodd"/><use xlink:href="#x" fill-rule="evenodd" clip-rule="evenodd"/><use xlink:href="#y"/><path fill-rule="evenodd" d="M1423 260c45.29 0 82-36.713 82-82s-36.71-82-82-82-82 36.713-82 82 36.71 82 82 82Zm-73.76-84.309-2.81 2.809 2.84 2.849c1.71 38.094 32.29 68.675 70.38 70.376l3.85 3.85 3.9-3.904c37.26-2.193 67.08-32.016 69.27-69.267l3.9-3.904-3.84-3.849c-1.71-38.094-32.29-68.675-70.38-70.376l-2.85-2.849-2.81 2.809c-38.92 1.197-70.26 32.533-71.45 71.456Z" clip-rule="evenodd"/><path fill-rule="evenodd" d="M1480 122h-113v113h113V122Zm-105 8h97v97h-97v-97Z" clip-rule="evenodd"/><path d="m1463.5 130-40-40-40 40h11.43l28.57-28.574L1452.07 130h11.43Zm8.5 19.926 28.57 28.574-28.57 28.575V218.5l40-40-40-40v11.426ZM1452.07 227l-28.57 28.575L1394.93 227h-11.43l40 40 40-40h-11.43ZM1375 207.075l-28.57-28.575 28.57-28.574V138.5l-40 40 40 40v-11.425Z"/><use xlink:href="#w" fill-rule="evenodd" clip-rule="evenodd"/><use xlink:href="#x" fill-rule="evenodd" clip-rule="evenodd"/><use xlink:href="#y"/><path fill-rule="evenodd" d="M1601 82c45.29 0 82-36.7127 82-82s-36.71-82-82-82-82 36.7127-82 82 36.71 82 82 82Zm-73.76-84.30933-2.81 2.809681 2.84 2.848869c1.71 38.09398 32.29 68.67468 70.38 70.37608l3.85 3.8495 3.9-3.9041c37.26-2.1924 67.08-32.0155 69.27-69.26673l3.9-3.903901-3.84-3.849309c-1.71-38.09396-32.29-68.67466-70.38-70.37606l-2.85-2.8492-2.81 2.81c-38.92 1.1966-70.26 32.5321-71.45 71.45517Z" clip-rule="evenodd"/><path fill-rule="evenodd" d="M1658-56h-113V57h113V-56Zm-105 8h97v97h-97v-97Z" clip-rule="evenodd"/><path d="m1641.5-48-40-40-40 40h11.43l28.57-28.5744L1630.07-48h11.43Zm8.5 19.9255L1678.57.500137 1650 29.0748V40.5l40-40-40-40v11.4255ZM1630.07 49l-28.57 28.5749L1572.93 49h-11.43l40 40 40-40h-11.43ZM1553 29.0747 1524.43.50042 1553-28.074V-39.5l-40 40 40 40V29.0747Z"/><use xlink:href="#z" fill-rule="evenodd" clip-rule="evenodd"/><use xlink:href="#A" fill-rule="evenodd" clip-rule="evenodd"/><use xlink:href="#B"/><path fill-rule="evenodd" d="M1601 260c45.29 0 82-36.713 82-82s-36.71-82-82-82-82 36.713-82 82 36.71 82 82 82Zm-73.76-84.309-2.81 2.809 2.84 2.849c1.71 38.094 32.29 68.675 70.38 70.376l3.85 3.85 3.9-3.904c37.26-2.193 67.08-32.016 69.27-69.267l3.9-3.904-3.84-3.849c-1.71-38.094-32.29-68.675-70.38-70.376l-2.85-2.849-2.81 2.809c-38.92 1.197-70.26 32.533-71.45 71.456Z" clip-rule="evenodd"/><path fill-rule="evenodd" d="M1658 122h-113v113h113V122Zm-105 8h97v97h-97v-97Z" clip-rule="evenodd"/><path d="m1641.5 130-40-40-40 40h11.43l28.57-28.574L1630.07 130h11.43Zm8.5 19.926 28.57 28.574-28.57 28.575V218.5l40-40-40-40v11.426ZM1630.07 227l-28.57 28.575L1572.93 227h-11.43l40 40 40-40h-11.43ZM1553 207.075l-28.57-28.575 28.57-28.574V138.5l-40 40 40 40v-11.425Z"/><use xlink:href="#z" fill-rule="evenodd" clip-rule="evenodd"/><use xlink:href="#A" fill-rule="evenodd" clip-rule="evenodd"/><use xlink:href="#B"/><path fill-rule="evenodd" d="M1779 82c45.29 0 82-36.7127 82-82s-36.71-82-82-82-82 36.7127-82 82 36.71 82 82 82Zm-73.76-84.30933-2.81 2.809681 2.84 2.848869c1.71 38.09398 32.29 68.67468 70.38 70.37608l3.85 3.8495 3.9-3.9041c37.26-2.1924 67.08-32.0155 69.27-69.26673l3.9-3.903901-3.84-3.849309c-1.71-38.09396-32.29-68.67466-70.38-70.37606l-2.85-2.8492-2.81 2.81c-38.92 1.1966-70.26 32.5321-71.45 71.45517Z" clip-rule="evenodd"/><path fill-rule="evenodd" d="M1836-56h-113V57h113V-56Zm-105 8h97v97h-97v-97Z" clip-rule="evenodd"/><path d="m1819.5-48-40-40-40 40h11.43l28.57-28.5744L1808.07-48h11.43Zm8.5 19.9255L1856.57.500137 1828 29.0748V40.5l40-40-40-40v11.4255ZM1808.07 49l-28.57 28.5749L1750.93 49h-11.43l40 40 40-40h-11.43ZM1731 29.0747 1702.43.50042 1731-28.074V-39.5l-40 40 40 40V29.0747Z"/><use xlink:href="#C" fill-rule="evenodd" clip-rule="evenodd"/><use xlink:href="#D" fill-rule="evenodd" clip-rule="evenodd"/><use xlink:href="#E"/><path fill-rule="evenodd" d="M1779 260c45.29 0 82-36.713 82-82s-36.71-82-82-82-82 36.713-82 82 36.71 82 82 82Zm-73.76-84.309-2.81 2.809 2.84 2.849c1.71 38.094 32.29 68.675 70.38 70.376l3.85 3.85 3.9-3.904c37.26-2.193 67.08-32.016 69.27-69.267l3.9-3.904-3.84-3.849c-1.71-38.094-32.29-68.675-70.38-70.376l-2.85-2.849-2.81 2.809c-38.92 1.197-70.26 32.533-71.45 71.456Z" clip-rule="evenodd"/><path fill-rule="evenodd" d="M1836 122h-113v113h113V122Zm-105 8h97v97h-97v-97Z" clip-rule="evenodd"/><path d="m1819.5 130-40-40-40 40h11.43l28.57-28.574L1808.07 130h11.43Zm8.5 19.926 28.57 28.574-28.57 28.575V218.5l40-40-40-40v11.426ZM1808.07 227l-28.57 28.575L1750.93 227h-11.43l40 40 40-40h-11.43ZM1731 207.075l-28.57-28.575 28.57-28.574V138.5l-40 40 40 40v-11.425Z"/><use xlink:href="#C" fill-rule="evenodd" clip-rule="evenodd"/><use xlink:href="#D" fill-rule="evenodd" clip-rule="evenodd"/><use xlink:href="#E"/><path fill-rule="evenodd" d="M1957 82c45.29 0 82-36.7127 82-82s-36.71-82-82-82-82 36.7127-82 82 36.71 82 82 82Zm-73.76-84.30933-2.81 2.809681 2.84 2.848869c1.71 38.09398 32.29 68.67468 70.38 70.37608l3.85 3.8495 3.9-3.9041c37.26-2.1924 67.08-32.0155 69.27-69.26673l3.9-3.903901-3.84-3.849309c-1.71-38.09396-32.29-68.67466-70.38-70.37606l-2.85-2.8492-2.81 2.81c-38.92 1.1966-70.26 32.5321-71.45 71.45517Z" clip-rule="evenodd"/><path fill-rule="evenodd" d="M2014-56h-113V57h113V-56Zm-105 8h97v97h-97v-97Z" clip-rule="evenodd"/><path d="m1997.5-48-40-40-40 40h11.43l28.57-28.5744L1986.07-48h11.43Zm8.5 19.9255L2034.57.500137 2006 29.0748V40.5l40-40-40-40v11.4255ZM1986.07 49l-28.57 28.5749L1928.93 49h-11.43l40 40 40-40h-11.43ZM1909 29.0747 1880.43.50042 1909-28.074V-39.5l-40 40 40 40V29.0747Z"/><use xlink:href="#F" fill-rule="evenodd" clip-rule="evenodd"/><use xlink:href="#G" fill-rule="evenodd" clip-rule="evenodd"/><use xlink:href="#H"/><path fill-rule="evenodd" d="M1957 260c45.29 0 82-36.713 82-82s-36.71-82-82-82-82 36.713-82 82 36.71 82 82 82Zm-73.76-84.309-2.81 2.809 2.84 2.849c1.71 38.094 32.29 68.675 70.38 70.376l3.85 3.85 3.9-3.904c37.26-2.193 67.08-32.016 69.27-69.267l3.9-3.904-3.84-3.849c-1.71-38.094-32.29-68.675-70.38-70.376l-2.85-2.849-2.81 2.809c-38.92 1.197-70.26 32.533-71.45 71.456Z" clip-rule="evenodd"/><path fill-rule="evenodd" d="M2014 122h-113v113h113V122Zm-105 8h97v97h-97v-97Z" clip-rule="evenodd"/><path d="m1997.5 130-40-40-40 40h11.43l28.57-28.574L1986.07 130h11.43Zm8.5 19.926 28.57 28.574-28.57 28.575V218.5l40-40-40-40v11.426ZM1986.07 227l-28.57 28.575L1928.93 227h-11.43l40 40 40-40h-11.43ZM1909 207.075l-28.57-28.575 28.57-28.574V138.5l-40 40 40 40v-11.425Z"/><use xlink:href="#F" fill-rule="evenodd" clip-rule="evenodd"/><use xlink:href="#G" fill-rule="evenodd" clip-rule="evenodd"/><use xlink:href="#H"/><path fill-rule="evenodd" d="M2135 82c45.29 0 82-36.7127 82-82s-36.71-82-82-82-82 36.7127-82 82 36.71 82 82 82Zm-73.76-84.30933-2.81 2.809681 2.84 2.848869c1.71 38.09398 32.29 68.67468 70.38 70.37608l3.85 3.8495 3.9-3.9041c37.26-2.1924 67.08-32.0155 69.27-69.26673l3.9-3.903901-3.84-3.849309c-1.71-38.09396-32.29-68.67466-70.38-70.37606l-2.85-2.8492-2.81 2.81c-38.92 1.1966-70.26 32.5321-71.45 71.45517Z" clip-rule="evenodd"/><path fill-rule="evenodd" d="M2192-56h-113V57h113V-56Zm-105 8h97v97h-97v-97Z" clip-rule="evenodd"/><path d="m2175.5-48-40-40-40 40h11.43l28.57-28.5744L2164.07-48h11.43Zm8.5 19.9255L2212.57.500137 2184 29.0748V40.5l40-40-40-40v11.4255ZM2164.07 49l-28.57 28.5749L2106.93 49h-11.43l40 40 40-40h-11.43ZM2087 29.0747 2058.43.50042 2087-28.074V-39.5l-40 40 40 40V29.0747Z"/><use xlink:href="#I" fill-rule="evenodd" clip-rule="evenodd"/><use xlink:href="#J" fill-rule="evenodd" clip-rule="evenodd"/><use xlink:href="#K"/><path fill-rule="evenodd" d="M2135 260c45.29 0 82-36.713 82-82s-36.71-82-82-82-82 36.713-82 82 36.71 82 82 82Zm-73.76-84.309-2.81 2.809 2.84 2.849c1.71 38.094 32.29 68.675 70.38 70.376l3.85 3.85 3.9-3.904c37.26-2.193 67.08-32.016 69.27-69.267l3.9-3.904-3.84-3.849c-1.71-38.094-32.29-68.675-70.38-70.376l-2.85-2.849-2.81 2.809c-38.92 1.197-70.26 32.533-71.45 71.456Z" clip-rule="evenodd"/><path fill-rule="evenodd" d="M2192 122h-113v113h113V122Zm-105 8h97v97h-97v-97Z" clip-rule="evenodd"/><path d="m2175.5 130-40-40-40 40h11.43l28.57-28.574L2164.07 130h11.43Zm8.5 19.926 28.57 28.574-28.57 28.575V218.5l40-40-40-40v11.426ZM2164.07 227l-28.57 28.575L2106.93 227h-11.43l40 40 40-40h-11.43ZM2087 207.075l-28.57-28.575 28.57-28.574V138.5l-40 40 40 40v-11.425Z"/><use xlink:href="#I" fill-rule="evenodd" clip-rule="evenodd"/><use xlink:href="#J" fill-rule="evenodd" clip-rule="evenodd"/><use xlink:href="#K"/><path fill-rule="evenodd" d="M2313 82c45.29 0 82-36.7127 82-82s-36.71-82-82-82-82 36.7127-82 82 36.71 82 82 82Zm-73.76-84.30933-2.81 2.809681 2.84 2.848869c1.71 38.09398 32.29 68.67468 70.38 70.37608l3.85 3.8495 3.9-3.9041c37.26-2.1924 67.08-32.0155 69.27-69.26673l3.9-3.903901-3.84-3.849309c-1.71-38.09396-32.29-68.67466-70.38-70.37606l-2.85-2.8492-2.81 2.81c-38.92 1.1966-70.26 32.5321-71.45 71.45517Z" clip-rule="evenodd"/><path fill-rule="evenodd" d="M2370-56h-113V57h113V-56Zm-105 8h97v97h-97v-97Z" clip-rule="evenodd"/><path d="m2353.5-48-40-40-40 40h11.43l28.57-28.5744L2342.07-48h11.43Zm8.5 19.9255L2390.57.500137 2362 29.0748V40.5l40-40-40-40v11.4255ZM2342.07 49l-28.57 28.5749L2284.93 49h-11.43l40 40 40-40h-11.43ZM2265 29.0747 2236.43.50042 2265-28.074V-39.5l-40 40 40 40V29.0747Z"/><use xlink:href="#L" fill-rule="evenodd" clip-rule="evenodd"/><use xlink:href="#M" fill-rule="evenodd" clip-rule="evenodd"/><use xlink:href="#N"/><path fill-rule="evenodd" d="M2313 260c45.29 0 82-36.713 82-82s-36.71-82-82-82-82 36.713-82 82 36.71 82 82 82Zm-73.76-84.309-2.81 2.809 2.84 2.849c1.71 38.094 32.29 68.675 70.38 70.376l3.85 3.85 3.9-3.904c37.26-2.193 67.08-32.016 69.27-69.267l3.9-3.904-3.84-3.849c-1.71-38.094-32.29-68.675-70.38-70.376l-2.85-2.849-2.81 2.809c-38.92 1.197-70.26 32.533-71.45 71.456Z" clip-rule="evenodd"/><path fill-rule="evenodd" d="M2370 122h-113v113h113V122Zm-105 8h97v97h-97v-97Z" clip-rule="evenodd"/><path d="m2353.5 130-40-40-40 40h11.43l28.57-28.574L2342.07 130h11.43Zm8.5 19.926 28.57 28.574-28.57 28.575V218.5l40-40-40-40v11.426ZM2342.07 227l-28.57 28.575L2284.93 227h-11.43l40 40 40-40h-11.43ZM2265 207.075l-28.57-28.575 28.57-28.574V138.5l-40 40 40 40v-11.425Z"/><use xlink:href="#L" fill-rule="evenodd" clip-rule="evenodd"/><use xlink:href="#M" fill-rule="evenodd" clip-rule="evenodd"/><use xlink:href="#N"/><path fill-rule="evenodd" d="M2491 82c45.29 0 82-36.7127 82-82s-36.71-82-82-82-82 36.7127-82 82 36.71 82 82 82Zm-73.76-84.30933-2.81 2.809681 2.84 2.848869c1.71 38.09398 32.29 68.67468 70.38 70.37608l3.85 3.8495 3.9-3.9041c37.26-2.1924 67.08-32.0155 69.27-69.26673l3.9-3.903901-3.84-3.849309c-1.71-38.09396-32.29-68.67466-70.38-70.37606l-2.85-2.8492-2.81 2.81c-38.92 1.1966-70.26 32.5321-71.45 71.45517Z" clip-rule="evenodd"/><path fill-rule="evenodd" d="M2548-56h-113V57h113V-56Zm-105 8h97v97h-97v-97Z" clip-rule="evenodd"/><path d="m2531.5-48-40-40-40 40h11.43l28.57-28.5744L2520.07-48h11.43Zm8.5 19.9255L2568.57.500137 2540 29.0748V40.5l40-40-40-40v11.4255ZM2520.07 49l-28.57 28.5749L2462.93 49h-11.43l40 40 40-40h-11.43ZM2443 29.0747 2414.43.50042 2443-28.074V-39.5l-40 40 40 40V29.0747Z"/><use xlink:href="#O" fill-rule="evenodd" clip-rule="evenodd"/><use xlink:href="#P" fill-rule="evenodd" clip-rule="evenodd"/><use xlink:href="#Q"/><path fill-rule="evenodd" d="M2491 260c45.29 0 82-36.713 82-82s-36.71-82-82-82-82 36.713-82 82 36.71 82 82 82Zm-73.76-84.309-2.81 2.809 2.84 2.849c1.71 38.094 32.29 68.675 70.38 70.376l3.85 3.85 3.9-3.904c37.26-2.193 67.08-32.016 69.27-69.267l3.9-3.904-3.84-3.849c-1.71-38.094-32.29-68.675-70.38-70.376l-2.85-2.849-2.81 2.809c-38.92 1.197-70.26 32.533-71.45 71.456Z" clip-rule="evenodd"/><path fill-rule="evenodd" d="M2548 122h-113v113h113V122Zm-105 8h97v97h-97v-97Z" clip-rule="evenodd"/><path d="m2531.5 130-40-40-40 40h11.43l28.57-28.574L2520.07 130h11.43Zm8.5 19.926 28.57 28.574-28.57 28.575V218.5l40-40-40-40v11.426ZM2520.07 227l-28.57 28.575L2462.93 227h-11.43l40 40 40-40h-11.43ZM2443 207.075l-28.57-28.575 28.57-28.574V138.5l-40 40 40 40v-11.425Z"/><use xlink:href="#O" fill-rule="evenodd" clip-rule="evenodd"/><use xlink:href="#P" fill-rule="evenodd" clip-rule="evenodd"/><use xlink:href="#Q"/><path fill-rule="evenodd" d="M2669 82c45.29 0 82-36.7127 82-82s-36.71-82-82-82-82 36.7127-82 82 36.71 82 82 82Zm-73.76-84.30933-2.81 2.809681 2.84 2.848869c1.71 38.09398 32.29 68.67468 70.38 70.37608l3.85 3.8495 3.9-3.9041c37.26-2.1924 67.08-32.0155 69.27-69.26673l3.9-3.903901-3.84-3.849309c-1.71-38.09396-32.29-68.67466-70.38-70.37606l-2.85-2.8492-2.81 2.81c-38.92 1.1966-70.26 32.5321-71.45 71.45517Z" clip-rule="evenodd"/><path fill-rule="evenodd" d="M2726-56h-113V57h113V-56Zm-105 8h97v97h-97v-97Z" clip-rule="evenodd"/><path d="m2709.5-48-40-40-40 40h11.43l28.57-28.5744L2698.07-48h11.43Zm8.5 19.9255L2746.57.500137 2718 29.0748V40.5l40-40-40-40v11.4255ZM2698.07 49l-28.57 28.5749L2640.93 49h-11.43l40 40 40-40h-11.43ZM2621 29.0747 2592.43.50042 2621-28.074V-39.5l-40 40 40 40V29.0747Z"/><use xlink:href="#R" fill-rule="evenodd" clip-rule="evenodd"/><use xlink:href="#S" fill-rule="evenodd" clip-rule="evenodd"/><use xlink:href="#T"/><path fill-rule="evenodd" d="M2669 260c45.29 0 82-36.713 82-82s-36.71-82-82-82-82 36.713-82 82 36.71 82 82 82Zm-73.76-84.309-2.81 2.809 2.84 2.849c1.71 38.094 32.29 68.675 70.38 70.376l3.85 3.85 3.9-3.904c37.26-2.193 67.08-32.016 69.27-69.267l3.9-3.904-3.84-3.849c-1.71-38.094-32.29-68.675-70.38-70.376l-2.85-2.849-2.81 2.809c-38.92 1.197-70.26 32.533-71.45 71.456Z" clip-rule="evenodd"/><path fill-rule="evenodd" d="M2726 122h-113v113h113V122Zm-105 8h97v97h-97v-97Z" clip-rule="evenodd"/><path d="m2709.5 130-40-40-40 40h11.43l28.57-28.574L2698.07 130h11.43Zm8.5 19.926 28.57 28.574-28.57 28.575V218.5l40-40-40-40v11.426ZM2698.07 227l-28.57 28.575L2640.93 227h-11.43l40 40 40-40h-11.43ZM2621 207.075l-28.57-28.575 28.57-28.574V138.5l-40 40 40 40v-11.425Z"/><use xlink:href="#R" fill-rule="evenodd" clip-rule="evenodd"/><use xlink:href="#S" fill-rule="evenodd" clip-rule="evenodd"/><use xlink:href="#T"/><path fill-rule="evenodd" d="M2847 82c45.29 0 82-36.7127 82-82s-36.71-82-82-82-82 36.7127-82 82 36.71 82 82 82Zm-73.76-84.30933-2.81 2.809681 2.84 2.848869c1.71 38.09398 32.29 68.67468 70.38 70.37608l3.85 3.8495 3.9-3.9041c37.26-2.1924 67.08-32.0155 69.27-69.26673l3.9-3.903901-3.84-3.849309c-1.71-38.09396-32.29-68.67466-70.38-70.37606l-2.85-2.8492-2.81 2.81c-38.92 1.1966-70.26 32.5321-71.45 71.45517Z" clip-rule="evenodd"/><path fill-rule="evenodd" d="M2904-56h-113V57h113V-56Zm-105 8h97v97h-97v-97Z" clip-rule="evenodd"/><path d="m2887.5-48-40-40-40 40h11.43l28.57-28.5744L2876.07-48h11.43Zm8.5 19.9255L2924.57.500137 2896 29.0748V40.5l40-40-40-40v11.4255ZM2876.07 49l-28.57 28.5749L2818.93 49h-11.43l40 40 40-40h-11.43ZM2799 29.0747 2770.43.50042 2799-28.074V-39.5l-40 40 40 40V29.0747Z"/><use xlink:href="#U" fill-rule="evenodd" clip-rule="evenodd"/><use xlink:href="#V" fill-rule="evenodd" clip-rule="evenodd"/><use xlink:href="#W"/><path fill-rule="evenodd" d="M2847 260c45.29 0 82-36.713 82-82s-36.71-82-82-82-82 36.713-82 82 36.71 82 82 82Zm-73.76-84.309-2.81 2.809 2.84 2.849c1.71 38.094 32.29 68.675 70.38 70.376l3.85 3.85 3.9-3.904c37.26-2.193 67.08-32.016 69.27-69.267l3.9-3.904-3.84-3.849c-1.71-38.094-32.29-68.675-70.38-70.376l-2.85-2.849-2.81 2.809c-38.92 1.197-70.26 32.533-71.45 71.456Z" clip-rule="evenodd"/><path fill-rule="evenodd" d="M2904 122h-113v113h113V122Zm-105 8h97v97h-97v-97Z" clip-rule="evenodd"/><path d="m2887.5 130-40-40-40 40h11.43l28.57-28.574L2876.07 130h11.43Zm8.5 19.926 28.57 28.574-28.57 28.575V218.5l40-40-40-40v11.426ZM2876.07 227l-28.57 28.575L2818.93 227h-11.43l40 40 40-40h-11.43ZM2799 207.075l-28.57-28.575 28.57-28.574V138.5l-40 40 40 40v-11.425Z"/><use xlink:href="#U" fill-rule="evenodd" clip-rule="evenodd"/><use xlink:href="#V" fill-rule="evenodd" clip-rule="evenodd"/><use xlink:href="#W"/><path fill-rule="evenodd" d="M3025 82c45.29 0 82-36.7127 82-82s-36.71-82-82-82-82 36.7127-82 82 36.71 82 82 82Zm-73.76-84.30933-2.81 2.809681 2.84 2.848869c1.71 38.09398 32.29 68.67468 70.38 70.37608l3.85 3.8495 3.9-3.9041c37.26-2.1924 67.08-32.0155 69.27-69.26673l3.9-3.903901-3.84-3.849309c-1.71-38.09396-32.29-68.67466-70.38-70.37606l-2.85-2.8492-2.81 2.81c-38.92 1.1966-70.26 32.5321-71.45 71.45517Z" clip-rule="evenodd"/><path fill-rule="evenodd" d="M3082-56h-113V57h113V-56Zm-105 8h97v97h-97v-97Z" clip-rule="evenodd"/><path d="m3065.5-48-40-40-40 40h11.43l28.57-28.5744L3054.07-48h11.43Zm8.5 19.9255L3102.57.500137 3074 29.0748V40.5l40-40-40-40v11.4255ZM3054.07 49l-28.57 28.5749L2996.93 49h-11.43l40 40 40-40h-11.43ZM2977 29.0747 2948.43.50042 2977-28.074V-39.5l-40 40 40 40V29.0747Z"/><use xlink:href="#X" fill-rule="evenodd" clip-rule="evenodd"/><use xlink:href="#Y" fill-rule="evenodd" clip-rule="evenodd"/><use xlink:href="#Z"/><path fill-rule="evenodd" d="M3025 260c45.29 0 82-36.713 82-82s-36.71-82-82-82-82 36.713-82 82 36.71 82 82 82Zm-73.76-84.309-2.81 2.809 2.84 2.849c1.71 38.094 32.29 68.675 70.38 70.376l3.85 3.85 3.9-3.904c37.26-2.193 67.08-32.016 69.27-69.267l3.9-3.904-3.84-3.849c-1.71-38.094-32.29-68.675-70.38-70.376l-2.85-2.849-2.81 2.809c-38.92 1.197-70.26 32.533-71.45 71.456Z" clip-rule="evenodd"/><path fill-rule="evenodd" d="M3082 122h-113v113h113V122Zm-105 8h97v97h-97v-97Z" clip-rule="evenodd"/><path d="m3065.5 130-40-40-40 40h11.43l28.57-28.574L3054.07 130h11.43Zm8.5 19.926 28.57 28.574-28.57 28.575V218.5l40-40-40-40v11.426ZM3054.07 227l-28.57 28.575L2996.93 227h-11.43l40 40 40-40h-11.43ZM2977 207.075l-28.57-28.575 28.57-28.574V138.5l-40 40 40 40v-11.425Z"/><use xlink:href="#X" fill-rule="evenodd" clip-rule="evenodd"/><use xlink:href="#Y" fill-rule="evenodd" clip-rule="evenodd"/><use xlink:href="#Z"/><path fill-rule="evenodd" d="M3203 82c45.29 0 82-36.7127 82-82s-36.71-82-82-82-82 36.7127-82 82 36.71 82 82 82Zm-73.76-84.30933-2.81 2.809681 2.84 2.848869c1.71 38.09398 32.29 68.67468 70.38 70.37608l3.85 3.8495 3.9-3.9041c37.26-2.1924 67.08-32.0155 69.27-69.26673l3.9-3.903901-3.84-3.849309c-1.71-38.09396-32.29-68.67466-70.38-70.37606l-2.85-2.8492-2.81 2.81c-38.92 1.1966-70.26 32.5321-71.45 71.45517Z" clip-rule="evenodd"/><path fill-rule="evenodd" d="M3260-56h-113V57h113V-56Zm-105 8h97v97h-97v-97Z" clip-rule="evenodd"/><path d="m3243.5-48-40-40-40 40h11.43l28.57-28.5744L3232.07-48h11.43Zm8.5 19.9255L3280.57.500137 3252 29.0748V40.5l40-40-40-40v11.4255ZM3232.07 49l-28.57 28.5749L3174.93 49h-11.43l40 40 40-40h-11.43ZM3155 29.0747 3126.43.50042 3155-28.074V-39.5l-40 40 40 40V29.0747Z"/><use xlink:href="#aa" fill-rule="evenodd" clip-rule="evenodd"/><use xlink:href="#ab" fill-rule="evenodd" clip-rule="evenodd"/><use xlink:href="#ac"/><path fill-rule="evenodd" d="M3203 260c45.29 0 82-36.713 82-82s-36.71-82-82-82-82 36.713-82 82 36.71 82 82 82Zm-73.76-84.309-2.81 2.809 2.84 2.849c1.71 38.094 32.29 68.675 70.38 70.376l3.85 3.85 3.9-3.904c37.26-2.193 67.08-32.016 69.27-69.267l3.9-3.904-3.84-3.849c-1.71-38.094-32.29-68.675-70.38-70.376l-2.85-2.849-2.81 2.809c-38.92 1.197-70.26 32.533-71.45 71.456Z" clip-rule="evenodd"/><path fill-rule="evenodd" d="M3260 122h-113v113h113V122Zm-105 8h97v97h-97v-97Z" clip-rule="evenodd"/><path d="m3243.5 130-40-40-40 40h11.43l28.57-28.574L3232.07 130h11.43Zm8.5 19.926 28.57 28.574-28.57 28.575V218.5l40-40-40-40v11.426ZM3232.07 227l-28.57 28.575L3174.93 227h-11.43l40 40 40-40h-11.43ZM3155 207.075l-28.57-28.575 28.57-28.574V138.5l-40 40 40 40v-11.425Z"/><use xlink:href="#aa" fill-rule="evenodd" clip-rule="evenodd"/><use xlink:href="#ab" fill-rule="evenodd" clip-rule="evenodd"/><use xlink:href="#ac"/><path fill-rule="evenodd" d="M3381 82c45.29 0 82-36.7127 82-82s-36.71-82-82-82-82 36.7127-82 82 36.71 82 82 82Zm-73.76-84.30933-2.81 2.809681 2.84 2.848869c1.71 38.09398 32.29 68.67468 70.38 70.37608l3.85 3.8495 3.9-3.9041c37.26-2.1924 67.08-32.0155 69.27-69.26673l3.9-3.903901-3.84-3.849309c-1.71-38.09396-32.29-68.67466-70.38-70.37606l-2.85-2.8492-2.81 2.81c-38.92 1.1966-70.26 32.5321-71.45 71.45517Z" clip-rule="evenodd"/><path fill-rule="evenodd" d="M3438-56h-113V57h113V-56Zm-105 8h97v97h-97v-97Z" clip-rule="evenodd"/><path d="m3421.5-48-40-40-40 40h11.43l28.57-28.5744L3410.07-48h11.43Zm8.5 19.9255L3458.57.500137 3430 29.0748V40.5l40-40-40-40v11.4255ZM3410.07 49l-28.57 28.5749L3352.93 49h-11.43l40 40 40-40h-11.43ZM3333 29.0747 3304.43.50042 3333-28.074V-39.5l-40 40 40 40V29.0747Z"/><path fill-rule="evenodd" d="M3470 171c45.29 0 82-36.713 82-82 0-45.2873-36.71-82-82-82s-82 36.7127-82 82c0 45.287 36.71 82 82 82Zm-73.76-84.3093-2.81 2.8097 2.84 2.8488c1.71 38.0938 32.29 68.6748 70.38 70.3758l3.85 3.85 3.9-3.904c37.26-2.193 67.08-32.016 69.27-69.267l3.9-3.9039-3.84-3.8493c-1.71-38.094-32.29-68.6747-70.38-70.3761l-2.85-2.8492-2.81 2.81c-38.92 1.1966-70.26 32.5321-71.45 71.4552Z" clip-rule="evenodd"/><path fill-rule="evenodd" d="M3527 33h-113v113h113V33Zm-105 8h97v97h-97V41Z" clip-rule="evenodd"/><path d="m3510.5 41-40-40-40 40h11.43l28.57-28.5744L3499.07 41h11.43Zm8.5 19.9255 28.57 28.5746L3519 118.075V129.5l40-40-40-40v11.4255ZM3499.07 138l-28.57 28.575L3441.93 138h-11.43l40 40 40-40h-11.43ZM3422 118.075l-28.57-28.5746L3422 60.926V49.5l-40 40 40 40v-11.425Z"/><path fill-rule="evenodd" d="M3381 260c45.29 0 82-36.713 82-82s-36.71-82-82-82-82 36.713-82 82 36.71 82 82 82Zm-73.76-84.309-2.81 2.809 2.84 2.849c1.71 38.094 32.29 68.675 70.38 70.376l3.85 3.85 3.9-3.904c37.26-2.193 67.08-32.016 69.27-69.267l3.9-3.904-3.84-3.849c-1.71-38.094-32.29-68.675-70.38-70.376l-2.85-2.849-2.81 2.809c-38.92 1.197-70.26 32.533-71.45 71.456Z" clip-rule="evenodd"/><path fill-rule="evenodd" d="M3438 122h-113v113h113V122Zm-105 8h97v97h-97v-97Z" clip-rule="evenodd"/><path d="m3421.5 130-40-40-40 40h11.43l28.57-28.574L3410.07 130h11.43Zm8.5 19.926 28.57 28.574-28.57 28.575V218.5l40-40-40-40v11.426ZM3410.07 227l-28.57 28.575L3352.93 227h-11.43l40 40 40-40h-11.43ZM3333 207.075l-28.57-28.575 28.57-28.574V138.5l-40 40 40 40v-11.425Z"/></g><defs><clipPath id="a"><path fill="#fff" d="M0 0h3559v179H0z"/></clipPath></defs></svg>