<svg xmlns="http://www.w3.org/2000/svg" width="452" height="453" fill="none">
  <g fill="#26C89A" opacity=".02">
    <path d="m322.39 130.12 7.56-7.57.5-.5 32.28-32.28 40.35 40.35h-11.52l-28.83-28.82-28.82 28.82H322.4Zm-8.58 20.1L285 179.04l28.82 28.82v11.54l-7.56-7.57-.5-.5-32.28-32.28 32.27-32.28.5-.5 7.57-7.57v11.52Zm20.1 77.74 28.82 28.82 28.83-28.82h11.52l-40.35 40.35-32.27-32.28-.5-.5-7.57-7.57h11.52Zm77.74-20.1 28.83-28.82-28.83-28.82v-11.53L452 179.04l-40.35 40.35v-11.53ZM232.61 40.35 272.96 0l40.35 40.35h-11.53l-28.82-28.83-28.82 28.83H232.6Zm-8.57 20.1-28.82 28.82 28.82 28.82v11.53l-7.57-7.57-.5-.5-32.28-32.28 40.35-40.35v11.53Zm20.1 77.74L272.96 167l28.82-28.82h11.53l-7.57 7.56-.5.5-32.28 32.28-32.78-32.77-7.57-7.57h11.53Zm77.74-20.09 28.82-28.83-28.82-28.83V48.92l40.35 40.35-32.28 32.27-.5.51-7.57 7.56V118.1Zm-179.03 12.02 40.34-40.35 32.28 32.28.5.5 7.57 7.57h-11.53L183.2 101.3l-28.82 28.82h-11.52Zm-8.58 20.09-28.82 28.83 28.82 28.83v11.52l-40.34-40.35 40.34-40.35v11.52Zm20.1 77.75 28.82 28.82L212 227.96h11.53l-7.56 7.57-.5.5-32.29 32.28-3.43-3.44-36.91-36.91h11.52Zm77.74-20.1 28.82-28.82-28.82-28.82V138.7l7.57 7.57 32.78 32.78-32.28 32.28-.5.5-7.57 7.57v-11.53Zm.5 12.04 7.57-7.58.5-.5 32.28-32.28 32.28 32.28.5.5 7.57 7.57h-11.53l-28.82-28.82-28.82 28.82H232.6Zm-8.57 20.1-28.82 28.81 28.82 28.82v11.53l-36.87-36.87-3.47-3.48 32.28-32.28.5-.5 7.56-7.56v11.52Zm20.1 77.73 28.82 28.82 28.82-28.82h11.53l-40.35 40.35-40.35-40.35h11.53Zm77.74-20.09 28.82-28.83L321.88 240v-11.53l7.56 7.57.51.5 32.28 32.28-40.35 40.35v-11.52Z"/>
    <path fill-rule="evenodd" d="m187.17 314.44 64.73 64.74-72.9 72.9V273.51l4.7-4.7 3.47 3.48v42.15Zm0 118.06V325.86l53.32 53.32-53.32 53.32ZM72.86 200.14l64.74 64.74h42.16l3.43 3.42-4.7 4.7H0l72.86-72.86Zm.25 11.13 52.5 52.97-106.1.63 53.6-53.6Z" clip-rule="evenodd"/>
    <path d="M305.74 138.19v-16.14h16.14v7.57l-.5.5h-7.56v7.56l-.51.5h-7.57Z"/>
    <path fill-rule="evenodd" d="M329.95 32.28H215.98v89.27l.5.5 7.56 7.57.5.5h7.57v7.57l.5.5 7.57 7.57v.5h65.06l.5-.5 7.57-7.57h-73.13v-16.14h-16.14v-81.7h97.84v89.27l7.56-7.57.51-.51V32.28Zm-89.77 113.98h-.5l-7.57-7.57-.5-.5h-7.57v-7.57l-.5-.5-7.56-7.57-.5-.5H126.2v113.98h89.27l.5-.5 7.57-7.57.5-.5v-7.57h7.57l.5-.5 7.57-7.57.5-.5v-65.06Zm81.7-15.63.5-.51 7.57-7.57.5-.5h89.27v113.98h-89.26l-.5-.5-7.57-7.57-.5-.5v-7.57h-7.57l-.5-.5-7.57-7.57-.5-.5v-64.56l.5-.5 7.56-7.57.5-.5h7.57v-7.56Zm8.07 105.9-.5-.5-7.57-7.56-.5-.5h-7.56v-7.57l-.51-.5-7.57-7.57-.5-.5h-64.56l-.5.5-7.57 7.56-.5.5v7.57h-7.57l-.5.5-7.57 7.57-.5.5v89.27h113.98v-89.26Zm0-106.41h81.7v97.84h-81.7v-16.14h-16.13v-65.56h16.13v-16.14Zm-8.07 105.91v81.7h-97.84v-81.7h16.14v-16.14h65.56v16.14h16.14Zm-105.9-8.07v-16.14h16.13v-65.56h-16.14v-16.14h-81.7v97.84h81.7Z" clip-rule="evenodd"/>
  </g>
</svg>
