<svg xmlns="http://www.w3.org/2000/svg" width="453" height="453" fill="none">
  <g fill="#26C89A" opacity=".02">
    <path d="m129.61 130.12-7.56-7.57-.5-.5-32.28-32.28-40.35 40.35h11.52l28.83-28.82 28.82 28.82h11.52Zm8.58 20.1L167 179.04l-28.82 28.82v11.54l7.56-7.57.5-.5 32.28-32.28-32.27-32.28-.5-.5-7.57-7.57v11.52Zm-20.1 77.74-28.82 28.82-28.83-28.82H48.92l40.35 40.35 32.27-32.28.5-.5 7.57-7.57H118.1Zm-77.74-20.1-28.83-28.82 28.83-28.82v-11.53L0 179.04l40.35 40.35v-11.53ZM219.39 40.35 179.04 0 138.7 40.35h11.52l28.82-28.83 28.82 28.83h11.53Zm8.57 20.1 28.82 28.82-28.82 28.82v11.52l7.57-7.56.5-.5 32.28-32.28-40.35-40.35v11.53Zm-20.1 77.74L179.04 167l-28.82-28.82H138.7l7.56 7.56.5.5 32.28 32.28 32.78-32.77 7.57-7.57h-11.53Zm-77.74-20.09L101.3 89.26l28.82-28.83V48.92L89.77 89.27l32.28 32.27.5.5 7.57 7.57V118.1Zm179.04 12.02L268.8 89.77l-32.28 32.28-.5.5-7.57 7.57H240l28.82-28.82 28.82 28.82h11.53Zm8.57 20.09 28.83 28.83-28.83 28.83v11.52l40.35-40.35-40.35-40.35v11.52Zm-20.1 77.75-28.82 28.82L240 227.96h-11.54l7.57 7.56.5.5 32.28 32.29 3.43-3.44 36.92-36.91h-11.53Zm-77.74-20.1-28.82-28.82 28.82-28.82V138.7l-7.57 7.57-32.78 32.78 32.28 32.28.5.5 7.57 7.57v-11.53Zm-.5 12.03-7.57-7.57-.5-.5-32.28-32.28-32.28 32.28-.5.5-7.56 7.57h11.52l28.82-28.82 28.82 28.82h11.54Zm8.57 20.1 28.82 28.82-28.82 28.82v11.53l36.87-36.88 3.48-3.47-32.28-32.28-.5-.5-7.57-7.57V240Zm-20.1 77.74-28.82 28.82-28.82-28.82h-11.53l40.35 40.35 40.35-40.35h-11.53Zm-77.74-20.1-28.82-28.82L130.12 240v-11.53l-7.56 7.57-.51.5-32.28 32.28 40.35 40.35v-11.53Z"/>
    <path fill-rule="evenodd" d="m264.83 314.44-64.73 64.74 72.9 72.9V273.5l-4.7-4.7-3.47 3.48v42.15Zm0 118.06V325.86l-53.31 53.32 53.31 53.32Zm114.31-232.36-64.74 64.73h-42.16l-3.43 3.43 4.7 4.7h178.5l-72.87-72.86Zm-.25 11.13-52.5 52.97 106.1.63-53.6-53.6Z" clip-rule="evenodd"/>
    <path d="M146.26 138.19v-16.14h-16.14v7.56l.5.5h7.57v7.57l.5.5h7.57Z"/>
    <path fill-rule="evenodd" d="M122.05 32.28h113.98v89.27l-.5.5-7.57 7.56-.5.5h-7.57v7.58l-.5.5-7.57 7.57v.5h-65.06l-.5-.51-7.56-7.56h73.12v-16.14h16.14v-81.7h-97.84v89.26l-7.56-7.56-.51-.51V32.28Zm89.77 113.98h.5l7.57-7.57.5-.5h7.57v-7.57l.5-.5 7.57-7.57.5-.5h89.27v113.98h-89.27l-.5-.5-7.57-7.57-.5-.5v-7.57h-7.57l-.5-.5-7.57-7.57-.5-.5v-65.06Zm-81.7-15.64-.5-.5-7.57-7.57-.5-.5H32.27v113.98h89.26l.5-.5 7.57-7.57.5-.5v-7.57h7.57l.5-.5 7.57-7.57.5-.5v-64.56l-.5-.5-7.56-7.57-.5-.5h-7.57v-7.57Zm-8.07 105.92.5-.51 7.57-7.56.5-.51h7.57v-7.56l.5-.51 7.57-7.56.5-.5h64.56l.5.5 7.57 7.56.5.5v7.57h7.57l.5.5 7.57 7.57.5.5v89.27H122.05v-89.26Zm0-106.42h-81.7v97.84h81.7v-16.14h16.14v-65.56h-16.14v-16.14Zm8.07 105.9v81.71h97.84v-81.7h-16.14v-16.14h-65.56v16.14h-16.14Zm105.9-8.06v-16.14H219.9v-65.56h16.14v-16.14h81.7v97.84h-81.7Z" clip-rule="evenodd"/>
  </g>
</svg>
