<svg xmlns="http://www.w3.org/2000/svg" width="1128" height="1034" fill="none">
  <g fill="#767987" opacity=".01">
    <path fill-rule="evenodd" d="M902.391 129.446C918.031 129.446 930.71 116.767 930.71 101.127C930.71 85.4872 918.031 72.8085 902.391 72.8085C886.751 72.8085 874.072 85.4872 874.072 101.127C874.072 116.767 886.751 129.446 902.391 129.446ZM876.916 100.33L875.946 101.3L876.93 102.284C877.517 115.44 888.078 126.001 901.234 126.589L902.564 127.918L903.912 126.57C916.777 125.812 927.076 115.513 927.833 102.648L929.182 101.3L927.852 99.9707C927.265 86.8148 916.703 76.2537 903.548 75.6661L902.564 74.6822L901.593 75.6526C888.151 76.0658 877.329 86.8876 876.916 100.33Z" clip-rule="evenodd"/>
    <path fill-rule="evenodd" d="M922.076 81.7876H883.051V120.812H922.076V81.7876ZM885.814 87.4859V84.5504H888.75H916.378H919.313V87.4859V115.114V118.05H916.378H888.75H885.814V115.114V87.4859Z" clip-rule="evenodd"/>
    <path d="M916.38 84.55 902.56 70.74 888.75 84.55H892.7L902.56 74.68 912.43 84.55H916.38ZM919.31 91.43 929.18 101.3 919.31 111.17V115.11L933.13 101.3 919.31 87.49V91.43ZM912.43 118.05 902.56 127.92 892.7 118.05H888.75L902.56 131.86 916.38 118.05H912.43ZM885.81 111.17 875.95 101.3 885.81 91.43V87.49L872 101.3 885.81 115.11V111.17Z"/>
    <path fill-rule="evenodd" d="M933.127 98.7099C948.767 98.7099 961.446 86.0311 961.446 70.391C961.446 54.7509 948.767 42.0721 933.127 42.0721C917.487 42.0721 904.808 54.7509 904.808 70.391C904.808 86.0311 917.487 98.7099 933.127 98.7099ZM907.653 69.5935L906.682 70.5638L907.666 71.5476C908.254 84.7035 918.815 95.2646 931.971 95.8522L933.3 97.1816L934.648 95.8333C947.513 95.0762 957.813 84.7767 958.57 71.9119L959.918 70.5637L958.589 69.2343C958.001 56.0785 947.44 45.5174 934.284 44.9298L933.3 43.9458L932.33 44.9162C918.888 45.3295 908.066 56.1513 907.653 69.5935Z" clip-rule="evenodd"/>
    <path fill-rule="evenodd" d="M952.812 51.0513H913.788V90.0761H952.812V51.0513ZM916.55 56.7496V53.8141H919.486H947.114H950.05V56.7496V84.3777V87.3132H947.114H919.486H916.55V84.3777V56.7496Z" clip-rule="evenodd"/>
    <path d="M947.11 53.81 933.3 40 919.49 53.81H923.43L933.3 43.95 943.17 53.81H947.11ZM950.05 60.7 959.92 70.56 950.05 80.43V84.38L963.86 70.56 950.05 56.75V60.7ZM943.17 87.31 933.3 97.18 923.43 87.31H919.49L933.3 101.13 947.11 87.31H943.17ZM916.55 80.43 906.68 70.56 916.55 60.7V56.75L902.74 70.56 916.55 84.38V80.43Z"/>
    <path fill-rule="evenodd" d="M963.864 129.446C979.504 129.446 992.183 116.767 992.183 101.127C992.183 85.4872 979.504 72.8085 963.864 72.8085C948.224 72.8085 935.545 85.4872 935.545 101.127C935.545 116.767 948.224 129.446 963.864 129.446ZM938.389 100.33L937.419 101.3L938.402 102.284C938.99 115.44 949.551 126.001 962.707 126.589L964.036 127.918L965.385 126.57C978.249 125.812 988.549 115.513 989.306 102.648L990.654 101.3L989.325 99.9707C988.737 86.8148 978.176 76.2537 965.02 75.6661L964.036 74.6822L963.066 75.6526C949.624 76.0658 938.802 86.8876 938.389 100.33Z" clip-rule="evenodd"/>
    <path fill-rule="evenodd" d="M983.549 81.7876H944.524V120.812H983.549V81.7876ZM947.287 87.4859V84.5504H950.222H977.85H980.786V87.4859V115.114V118.05H977.85H950.222H947.287V115.114V87.4859Z" clip-rule="evenodd"/>
    <path d="M977.85 84.55 964.04 70.74 950.22 84.55H954.17L964.04 74.68 973.91 84.55H977.85ZM980.79 91.43 990.65 101.3 980.79 111.17V115.11L994.6 101.3 980.79 87.49V91.43ZM973.91 118.05 964.04 127.92 954.17 118.05H950.22L964.04 131.86 977.85 118.05H973.91ZM947.29 111.17 937.42 101.3 947.29 91.43V87.49L933.47 101.3 947.29 115.11V111.17Z"/>
    <path fill-rule="evenodd" d="M933.127 160.183C948.767 160.183 961.446 147.504 961.446 131.864C961.446 116.224 948.767 103.545 933.127 103.545C917.487 103.545 904.808 116.224 904.808 131.864C904.808 147.504 917.487 160.183 933.127 160.183ZM907.653 131.066L906.682 132.036L907.666 133.02C908.254 146.176 918.815 156.737 931.971 157.325L933.3 158.654L934.648 157.306C947.513 156.549 957.813 146.249 958.57 133.385L959.918 132.036L958.589 130.707C958.001 117.551 947.44 106.99 934.284 106.402L933.3 105.419L932.33 106.389C918.888 106.802 908.066 117.624 907.653 131.066Z" clip-rule="evenodd"/>
    <path fill-rule="evenodd" d="M952.812 112.524H913.788V151.549H952.812V112.524ZM916.55 118.222V115.287H919.486H947.114H950.05V118.222V145.85V148.786H947.114H919.486H916.55V145.85V118.222Z" clip-rule="evenodd"/>
    <path d="M947.11 115.29 933.3 101.47 919.49 115.29H923.43L933.3 105.42 943.17 115.29H947.11ZM950.05 122.17 959.92 132.04 950.05 141.91V145.85L963.86 132.04 950.05 118.22V122.17ZM943.17 148.79 933.3 158.65 923.43 148.79H919.49L933.3 162.6 947.11 148.79H943.17ZM916.55 141.91 906.68 132.04 916.55 122.17V118.22L902.74 132.04 916.55 145.85V141.91Z"/>
  </g>
  <g fill="#767A86" opacity=".05">
    <path fill-rule="evenodd" d="M955.766 223.073C984.98 223.073 1008.66 199.391 1008.66 170.177C1008.66 140.964 984.98 117.282 955.766 117.282C926.553 117.282 902.87 140.964 902.87 170.177C902.87 199.391 926.553 223.073 955.766 223.073ZM908.183 168.688L906.37 170.5L908.208 172.338C909.306 196.911 929.032 216.638 953.606 217.736L956.089 220.219L958.607 217.7C982.637 216.286 1001.87 197.048 1003.29 173.018L1005.81 170.5L1003.32 168.017C1002.23 143.444 982.5 123.717 957.927 122.619L956.089 120.782L954.276 122.594C929.168 123.366 908.955 143.58 908.183 168.688Z" clip-rule="evenodd"/>
    <path fill-rule="evenodd" d="M992.535 134.054H919.642V206.946H992.535V134.054ZM924.803 144.697V139.214H930.286H981.892H987.375V144.697V196.303V201.786H981.892H930.286H924.803V196.303V144.697Z" clip-rule="evenodd"/>
    <path d="M981.89 139.21 956.09 113.41 930.29 139.21H937.66L956.09 120.78 974.52 139.21H981.89ZM987.38 152.07 1005.81 170.5 987.38 188.93V196.3L1013.18 170.5 987.38 144.7V152.07ZM974.52 201.79 956.09 220.22 937.66 201.79H930.29L956.09 227.59 981.89 201.79H974.52ZM924.8 188.93 906.37 170.5 924.8 152.07V144.7L899 170.5 924.8 196.3V188.93Z"/>
    <path fill-rule="evenodd" d="M1013.18 165.662C1042.39 165.662 1066.07 141.98 1066.07 112.766C1066.07 83.5527 1042.39 59.8704 1013.18 59.8704C983.964 59.8704 960.282 83.5527 960.282 112.766C960.282 141.98 983.964 165.662 1013.18 165.662ZM965.594 111.277L963.782 113.089L965.619 114.927C966.717 139.5 986.444 159.227 1011.02 160.324L1013.5 162.807L1016.02 160.289C1040.05 158.875 1059.29 139.637 1060.7 115.607L1063.22 113.089L1060.74 110.606C1059.64 86.0324 1039.91 66.3057 1015.34 65.2082L1013.5 63.3703L1011.69 65.1829C986.579 65.9548 966.366 86.1684 965.594 111.277Z" clip-rule="evenodd"/>
    <path fill-rule="evenodd" d="M1049.95 76.6423H977.054V149.535H1049.95V76.6423ZM982.214 87.2859V81.8028H987.697H1039.3H1044.79V87.2859V138.892V144.375H1039.3H987.697H982.214V138.892V87.2859Z" clip-rule="evenodd"/>
    <path d="M1039.3 81.8 1013.5 56 987.7 81.8H995.07L1013.5 63.37 1031.93 81.8H1039.3ZM1044.79 94.66 1063.22 113.09 1044.79 131.52V138.89L1070.59 113.09 1044.79 87.29V94.66ZM1031.93 144.38 1013.5 162.81 995.07 144.38H987.7L1013.5 170.18 1039.3 144.38H1031.93ZM982.21 131.52 963.78 113.09 982.21 94.66V87.29L956.41 113.09 982.21 138.89V131.52Z"/>
    <path fill-rule="evenodd" d="M1070.59 223.073C1099.8 223.073 1123.48 199.391 1123.48 170.177C1123.48 140.964 1099.8 117.282 1070.59 117.282C1041.38 117.282 1017.69 140.964 1017.69 170.177C1017.69 199.391 1041.38 223.073 1070.59 223.073ZM1023.01 168.688L1021.19 170.5L1023.03 172.338C1024.13 196.911 1043.85 216.638 1068.43 217.736L1070.91 220.219L1073.43 217.7C1097.46 216.286 1116.7 197.048 1118.11 173.018L1120.63 170.5L1118.15 168.017C1117.05 143.444 1097.32 123.717 1072.75 122.619L1070.91 120.782L1069.1 122.594C1043.99 123.366 1023.78 143.58 1023.01 168.688Z" clip-rule="evenodd"/>
    <path fill-rule="evenodd" d="M1107.36 134.054H1034.46V206.946H1107.36V134.054ZM1039.63 144.697V139.214H1045.11H1096.71H1102.2V144.697V196.303V201.786H1096.71H1045.11H1039.63V196.303V144.697Z" clip-rule="evenodd"/>
    <path d="M1096.71 139.21 1070.91 113.41 1045.11 139.21H1052.48L1070.91 120.78 1089.34 139.21H1096.71ZM1102.2 152.07 1120.63 170.5 1102.2 188.93V196.3L1128 170.5 1102.2 144.7V152.07ZM1089.34 201.79 1070.91 220.22 1052.48 201.79H1045.11L1070.91 227.59 1096.71 201.79H1089.34ZM1039.63 188.93 1021.19 170.5 1039.63 152.07V144.7L1013.82 170.5 1039.63 196.3V188.93Z"/>
    <path fill-rule="evenodd" d="M1013.18 280.485C1042.39 280.485 1066.07 256.802 1066.07 227.589C1066.07 198.375 1042.39 174.693 1013.18 174.693C983.964 174.693 960.282 198.375 960.282 227.589C960.282 256.802 983.964 280.485 1013.18 280.485ZM965.594 226.099L963.782 227.912L965.619 229.749C966.717 254.322 986.444 274.049 1011.02 275.147L1013.5 277.63L1016.02 275.112C1040.05 273.697 1059.29 254.459 1060.7 230.43L1063.22 227.911L1060.74 225.428C1059.64 200.855 1039.91 181.128 1015.34 180.031L1013.5 178.193L1011.69 180.005C986.579 180.777 966.366 200.991 965.594 226.099Z" clip-rule="evenodd"/>
    <path fill-rule="evenodd" d="M1049.95 191.465H977.054V264.358H1049.95V191.465ZM982.214 202.108V196.625H987.697H1039.3H1044.79V202.108V253.714V259.197H1039.3H987.697H982.214V253.714V202.108Z" clip-rule="evenodd"/>
    <path d="M1039.3 196.63 1013.5 170.82 987.7 196.63H995.07L1013.5 178.19 1031.93 196.63H1039.3ZM1044.79 209.48 1063.22 227.91 1044.79 246.34V253.71L1070.59 227.91 1044.79 202.11V209.48ZM1031.93 259.2 1013.5 277.63 995.07 259.2H987.7L1013.5 285 1039.3 259.2H1031.93ZM982.21 246.34 963.78 227.91 982.21 209.48V202.11L956.41 227.91 982.21 253.71V246.34Z"/>
  </g>
  <g fill="#767987" opacity=".01">
    <path fill-rule="evenodd" d="M314.508 730.514H253.326V791.696H314.508V730.514ZM257.657 739.447V734.845H262.26H305.574H310.176V739.447V782.762V787.364H305.574H262.26H257.657V782.762V739.447Z" clip-rule="evenodd"/>
    <path d="M305.57 734.85 283.92 713.19 262.26 734.85 268.45 734.85 283.92 719.37 299.39 734.85 305.57 734.85ZM310.18 745.63 325.65 761.11 310.18 776.58 310.18 782.76 331.83 761.11 310.18 739.45 310.18 745.63ZM299.39 787.36 283.92 802.84 268.45 787.36 262.26 787.36 283.92 809.02 305.57 787.36 299.39 787.36ZM257.66 776.58 242.19 761.11 257.66 745.63 257.66 739.45 236 761.11 257.66 782.76 257.66 776.58Z"/>
    <path fill-rule="evenodd" d="M362.695 682.326H301.513V743.508H362.695V682.326ZM305.845 686.658H358.364V739.177H305.845V686.658Z" clip-rule="evenodd"/>
    <path d="M353.76 686.66 332.11 665 310.45 686.66H316.64L332.11 671.19 347.58 686.66H353.76ZM358.37 697.45 373.84 712.92 358.37 728.39V734.57L380.02 712.92 358.37 691.26V697.45ZM347.58 739.18 332.11 754.65 316.63 739.18H310.45L332.11 760.83 353.76 739.18H347.58ZM305.85 728.39 290.38 712.92 305.85 697.45V691.26L284.19 712.92 305.85 734.57V728.39Z"/>
    <path fill-rule="evenodd" d="M410.883 730.514H349.7V791.696H410.883V730.514ZM354.034 734.845H406.553V787.364H354.034V734.845Z" clip-rule="evenodd"/>
    <path d="M401.95 734.85 380.29 713.19 358.63 734.85H364.82L380.29 719.37 395.76 734.85H401.95ZM406.55 745.63 422.02 761.11 406.55 776.58V782.76L428.21 761.11 406.55 739.45V745.63ZM395.76 787.36 380.29 802.84 364.82 787.36H358.63L380.29 809.02 401.95 787.36H395.76ZM354.03 776.57 338.56 761.11 354.03 745.64V739.45L332.37 761.11 354.03 782.76V776.57Z"/>
    <path fill-rule="evenodd" d="M362.695 778.701H301.513V839.883H362.695V778.701ZM305.845 783.033H358.364V835.552H305.845V783.033Z" clip-rule="evenodd"/>
    <path d="M353.76 783.03 332.11 761.38 310.45 783.03H316.64L332.11 767.56 347.58 783.03H353.76ZM358.37 793.82 373.84 809.29 358.37 824.76V830.95L380.02 809.29 358.37 787.64V793.82ZM347.58 835.55 332.11 851.02 316.63 835.55H310.45L332.11 857.21 353.76 835.55H347.58ZM305.85 824.76 290.38 809.29 305.85 793.82V787.64L284.19 809.29 305.85 830.95V824.76Z"/>
  </g>
  <g fill="#767A86" opacity=".05">
    <path fill-rule="evenodd" d="M422.634 797.363H308.361V911.636H422.634V797.363ZM316.451 814.049V805.454H325.046H405.948H414.544V814.049V894.951V903.547H405.948H325.046H316.451V894.951V814.049Z" clip-rule="evenodd"/>
    <path d="M405.95 805.45 365.5 765 325.05 805.45 336.6 805.45 365.5 776.56 394.39 805.45 405.95 805.45ZM414.54 825.61 443.44 854.5 414.54 883.4 414.54 894.95 454.99 854.5 414.54 814.05 414.54 825.61ZM394.39 903.55 365.5 932.44 336.6 903.55 325.05 903.55 365.5 944 405.95 903.55 394.39 903.55ZM316.45 883.4 287.55 854.5 316.45 825.6 316.45 814.05 276 854.5 316.45 894.95 316.45 883.4Z"/>
    <path fill-rule="evenodd" d="M512.635 707.361H398.362V821.634H512.635V707.361ZM406.453 715.451H504.546V813.544H406.453V715.451Z" clip-rule="evenodd"/>
    <path d="M495.95 715.45 455.5 675 415.05 715.45H426.61L455.5 686.56 484.4 715.45H495.95ZM504.55 735.6 533.45 764.5 504.55 793.39V804.95L545 764.5 504.55 724.05V735.6ZM484.4 813.54 455.5 842.44 426.61 813.54H415.05L455.5 853.99 495.95 813.54H484.4ZM406.46 793.4 377.56 764.5 406.46 735.6V724.05L366.01 764.5 406.46 804.95V793.4Z"/>
    <path fill-rule="evenodd" d="M602.638 797.363H488.365V911.636H602.638V797.363ZM496.458 805.454H594.551V903.547H496.458V805.454Z" clip-rule="evenodd"/>
    <path d="M585.95 805.45 545.5 765 505.05 805.45H516.61L545.5 776.56 574.4 805.45H585.95ZM594.55 825.6 623.45 854.5 594.55 883.4V894.95L635 854.5 594.55 814.05V825.6ZM574.4 903.55 545.5 932.44 516.61 903.55H505.05L545.5 944 585.95 903.55H574.4ZM496.45 883.39 467.56 854.5 496.45 825.61V814.05L456 854.5 496.45 894.95V883.39Z"/>
    <path fill-rule="evenodd" d="M512.635 887.366H398.362V1001.64H512.635V887.366ZM406.453 895.456H504.546V993.549H406.453V895.456Z" clip-rule="evenodd"/>
    <path d="M495.95 895.46 455.5 855.01 415.05 895.46H426.61L455.5 866.56 484.4 895.46H495.95ZM504.55 915.61 533.45 944.5 504.55 973.4V984.95L545 944.5 504.55 904.05V915.61ZM484.4 993.55 455.5 1022.45 426.61 993.55H415.05L455.5 1034 495.95 993.55H484.4ZM406.46 973.4 377.56 944.5 406.46 915.61V904.05L366.01 944.5 406.46 984.95V973.4Z"/>
  </g>
  <g fill="#767987" opacity=".01">
    <path d="M69.38 195.35 65.33 199.4 65.06 199.67 47.78 216.95 26.19 195.35 32.36 195.35 47.78 210.78 63.21 195.35 65.33 195.35 69.38 195.35ZM73.97 184.59 89.4 169.16 73.97 153.73 73.97 151.61 73.97 147.56 78.02 151.61 78.29 151.88 95.57 169.16 78.29 186.44 78.02 186.71 73.97 190.76 73.97 186.71 73.97 184.59ZM63.21 142.97 47.78 127.54 32.36 142.97 26.19 142.97 47.78 121.37 65.06 138.65 65.33 138.92 69.38 142.97 65.33 142.97 63.21 142.97ZM21.6 153.73 6.17 169.16 21.6 184.59 21.6 190.76 0 169.16 21.6 147.56 21.6 153.73ZM117.44 243.4 95.84 265 74.24 243.4 80.41 243.4 95.84 258.83 111.27 243.4 117.44 243.4ZM122.03 232.64 137.46 217.22 122.03 201.79 122.03 195.62 126.08 199.67 126.35 199.93 143.63 217.22 122.03 238.81 122.03 232.64ZM111.27 191.03 95.84 175.6 80.41 191.03 78.29 191.03 74.24 191.03 78.29 186.98 78.56 186.71 95.84 169.43 113.39 186.98 117.44 191.03 113.39 191.03 111.27 191.03ZM69.65 201.79 54.22 217.21 69.65 232.64 69.65 238.81 48.06 217.22 65.33 199.94 65.6 199.67 69.65 195.62 69.65 195.62 69.65 199.67 69.65 201.79ZM165.49 195.35 143.89 216.95 126.62 199.67 126.35 199.4 122.3 195.35 126.35 195.35 128.47 195.35 143.9 210.78 159.32 195.35 165.49 195.35ZM170.08 184.59 185.51 169.16 170.08 153.73 170.08 147.56 191.68 169.16 170.08 190.76 170.08 184.59ZM159.32 142.97 143.9 127.54 128.47 142.97 126.35 142.97 122.3 142.97 126.35 138.92 126.62 138.65 143.89 121.37 143.9 121.38 145.73 123.21 165.49 142.97 159.32 142.97ZM117.71 153.73 102.28 169.16 117.71 184.59 117.71 190.76 113.66 186.71 96.11 169.16 113.39 151.88 113.66 151.61 117.71 147.56 117.71 153.73ZM117.44 147.29 113.39 151.34 113.12 151.61 95.84 168.89 78.56 151.61 78.29 151.34 74.24 147.29 78.29 147.29 80.41 147.29 95.84 162.72 111.27 147.29 113.39 147.29 117.44 147.29ZM122.03 136.53 137.46 121.1 122.03 105.68 122.03 99.51 141.77 119.24 143.62 121.1 143.63 121.1 126.35 138.39 126.08 138.65 122.03 142.7 122.03 136.53ZM111.27 94.92 95.84 79.49 80.41 94.92 74.24 94.92 95.84 73.32 117.44 94.92 111.27 94.92ZM69.65 105.68 54.22 121.1 69.65 136.53 69.65 142.7 69.65 142.7 65.6 138.65 65.33 138.38 48.06 121.1 69.65 99.51 69.65 105.68Z"/>
    <path fill-rule="evenodd" d="M141.77 96.68 107.11 62.02 146.14 23 146.14 118.59 143.62 121.1 141.77 119.24 141.77 96.68ZM141.77 33.48 141.77 90.57 113.22 62.02 141.77 33.48ZM202.95 157.87 168.3 123.21 145.73 123.21 143.9 121.38 146.41 118.86 241.96 118.86 202.95 157.87ZM202.82 151.91 174.71 123.55 231.51 123.21 202.82 151.91Z" clip-rule="evenodd"/>
    <path d="M78.2914 191.027L78.2914 199.666L69.6539 199.666L69.6539 195.617L69.9239 195.347L73.9711 195.347L73.9711 191.3L74.2434 191.027L78.2914 191.027Z"/>
    <path fill-rule="evenodd" d="M65.3318 247.722L126.345 247.722L126.345 199.934L126.078 199.666L122.028 195.617L122.026 195.615L121.758 195.347L117.708 195.347L117.708 191.296L117.439 191.027L113.387 186.975L113.387 186.708L78.563 186.708L78.2914 186.979L74.2434 191.027L78.2914 191.027L113.387 191.027L113.387 199.666L122.026 199.666L122.026 243.402L69.6522 243.402L69.6522 199.666L69.6539 199.666L69.6539 195.617L69.6522 195.619L65.6044 199.666L65.3318 199.939L65.3318 247.722ZM113.387 186.708L113.656 186.708L117.706 190.757L117.708 190.759L117.976 191.027L122.026 191.027L122.026 195.078L122.295 195.347L126.345 199.397L126.615 199.666L174.4 199.666L174.4 138.652L126.615 138.652L126.345 138.922L122.295 142.972L122.026 143.241L122.026 147.292L117.976 147.292L117.708 147.56L117.706 147.562L113.656 151.611L113.387 151.881L113.387 186.708ZM69.6522 195.076L69.3816 195.347L65.3318 199.397L65.0622 199.666L17.278 199.666L17.2781 138.652L65.0622 138.652L65.3318 138.922L69.3816 142.972L69.6522 143.243L69.6522 147.292L73.7012 147.292L73.9711 147.562L78.0209 151.611L78.2914 151.882L78.2914 186.437L78.0208 186.708L73.9711 190.757L73.7011 191.027L69.6522 191.027L69.6522 195.076ZM65.3318 138.38L65.6043 138.652L69.6522 142.7L69.6539 142.702L69.9238 142.972L73.9711 142.972L73.9711 147.019L74.2434 147.292L78.2914 151.34L78.563 151.611L113.119 151.611L113.387 151.344L117.439 147.292L117.708 147.023L117.708 142.972L121.758 142.972L122.026 142.704L122.028 142.702L126.078 138.652L126.345 138.385L126.345 90.5973L65.3318 90.5972L65.3318 138.38ZM65.3318 195.347L26.1863 195.347L21.5968 195.347L21.5968 190.757L21.5968 147.562L21.5968 142.972L26.1863 142.972L65.3318 142.972L65.3318 151.611L73.9711 151.611L73.9711 186.708L65.3318 186.708L65.3318 195.347ZM69.6522 138.652L69.6522 94.9168L122.027 94.9168L122.027 138.652L113.387 138.652L113.387 147.292L78.2914 147.292L78.2914 138.652L69.6522 138.652ZM126.345 142.972L126.345 151.611L117.708 151.611L117.708 186.708L126.345 186.708L126.345 195.347L170.082 195.347L170.082 142.972L126.345 142.972Z" clip-rule="evenodd"/>
  </g>
  <g fill="#767A86" opacity=".05">
    <path d="M157.61 321.96 150.05 329.53 149.54 330.03 117.27 362.31 76.92 321.96 88.44 321.96 117.27 350.78 146.09 321.96 150.05 321.96 157.61 321.96ZM166.19 301.86 195.01 273.04 166.19 244.22 166.19 240.26 166.19 232.69 173.75 240.26 174.26 240.76 206.53 273.04 174.26 305.32 173.75 305.82 166.19 313.39 166.19 305.82 166.19 301.86ZM146.09 224.12 117.27 195.3 88.44 224.12 76.92 224.12 117.27 183.77 149.54 216.05 150.05 216.55 157.61 224.12 150.05 224.12 146.09 224.12ZM68.35 244.22 39.52 273.04 68.35 301.86 68.35 313.39 28 273.04 68.35 232.69 68.35 244.22ZM247.39 411.73 207.04 452.08 166.69 411.73 178.22 411.73 207.04 440.56 235.86 411.73 247.39 411.73ZM255.96 391.63 284.78 362.81 255.96 333.99 255.96 322.46 263.53 330.03 264.02 330.53 296.31 362.81 255.96 403.16 255.96 391.63ZM235.86 313.89 207.04 285.07 178.22 313.89 174.26 313.89 166.69 313.89 174.26 306.33 174.76 305.82 207.04 273.55 239.82 306.32 247.39 313.89 239.82 313.89 235.86 313.89ZM158.12 333.99 129.3 362.81 158.12 391.64 158.12 403.16 117.77 362.81 150.05 330.54 150.56 330.03 158.12 322.47 158.12 322.46 158.12 330.03 158.12 333.99ZM337.15 321.96 296.81 362.31 264.53 330.03 264.02 329.53 256.46 321.96 264.02 321.96 267.99 321.96 296.81 350.78 325.63 321.96 337.15 321.96ZM345.73 301.87 374.55 273.04 345.73 244.21 345.73 232.69 386.07 273.04 345.73 313.39 345.73 301.87ZM325.63 224.12 296.81 195.3 267.99 224.12 264.02 224.12 256.46 224.12 264.02 216.55 264.53 216.05 296.81 183.77 296.81 183.78 300.24 187.21 337.15 224.12 325.63 224.12ZM247.89 244.22 219.07 273.04 247.89 301.86 247.89 313.39 240.32 305.82 207.54 273.04 239.82 240.76 240.32 240.26 247.89 232.69 247.89 244.22ZM247.39 232.19 239.82 239.76 239.32 240.26 207.04 272.54 174.76 240.26 174.26 239.75 166.69 232.19 174.26 232.19 178.22 232.19 207.04 261.01 235.86 232.19 239.82 232.19 247.39 232.19ZM255.96 212.09 284.78 183.27 255.96 154.45 255.96 142.92 292.83 179.79 296.31 183.27 296.31 183.27 264.02 215.55 263.53 216.05 255.96 223.62 255.96 212.09ZM235.86 134.35 207.04 105.53 178.22 134.35 166.69 134.35 207.04 94 247.39 134.35 235.86 134.35ZM158.12 154.44 129.3 183.27 158.12 212.09 158.12 223.62 158.12 223.61 150.56 216.05 150.05 215.54 117.77 183.27 158.12 142.92 158.12 154.44Z"/>
    <path fill-rule="evenodd" d="M292.83 137.64 228.1 72.9 301 0 301 178.57 296.31 183.27 292.83 179.79 292.83 137.64ZM292.83 19.58 292.83 126.22 239.52 72.9 292.83 19.58ZM407.14 251.94 342.4 187.21 300.24 187.21 296.81 183.78 301.51 179.08 480 179.08 407.14 251.94ZM406.89 240.81 354.38 187.84 460.49 187.21 406.89 240.81Z" clip-rule="evenodd"/>
    <path d="M174.256 313.892L174.256 330.03L158.12 330.03L158.12 322.465L158.625 321.961L166.185 321.961L166.185 314.4L166.694 313.892L174.256 313.892Z"/>
    <path fill-rule="evenodd" d="M150.046 419.802L264.025 419.802L264.025 330.53L263.526 330.03L255.961 322.465L255.958 322.462L255.456 321.961L247.89 321.961L247.89 314.394L247.387 313.892L239.817 306.322L239.817 305.822L174.763 305.822L174.256 306.33L166.694 313.892L174.256 313.892L239.817 313.892L239.817 330.03L255.958 330.03L255.958 411.733L158.117 411.733L158.117 330.03L158.12 330.03L158.12 322.465L158.117 322.469L150.556 330.03L150.046 330.54L150.046 419.802ZM239.817 305.822L240.321 305.822L247.887 313.387L247.89 313.39L248.391 313.892L255.958 313.892L255.958 321.459L256.46 321.961L264.025 329.526L264.529 330.03L353.796 330.03L353.796 216.05L264.53 216.05L264.025 216.554L256.46 224.12L255.958 224.622L255.958 232.189L248.391 232.189L247.89 232.69L247.887 232.693L240.321 240.259L239.817 240.763L239.817 305.822ZM158.117 321.455L157.612 321.961L150.046 329.527L149.543 330.03L60.2771 330.03L60.2771 216.05L149.543 216.05L150.046 216.554L157.612 224.12L158.117 224.625L158.117 232.189L165.681 232.189L166.185 232.693L173.751 240.259L174.256 240.764L174.256 305.317L173.751 305.822L166.185 313.387L165.681 313.892L158.117 313.892L158.117 321.455ZM150.046 215.541L150.555 216.05L158.117 223.612L158.121 223.615L158.625 224.12L166.185 224.12L166.185 231.68L166.694 232.189L174.256 239.751L174.764 240.259L239.318 240.259L239.817 239.759L247.387 232.189L247.89 231.687L247.89 224.12L255.457 224.12L255.958 223.619L255.961 223.615L263.526 216.05L264.025 215.551L264.025 126.278L150.046 126.278L150.046 215.541ZM150.046 321.961L76.9186 321.961L68.345 321.961L68.345 313.387L68.345 232.693L68.345 224.12L76.9187 224.12L150.046 224.12L150.046 240.259L166.185 240.259L166.185 305.822L150.046 305.822L150.046 321.961ZM158.117 216.05L158.117 134.348L255.958 134.348L255.958 216.05L239.817 216.05L239.817 232.189L174.256 232.189L174.256 216.05L158.117 216.05ZM264.025 224.12L264.025 240.259L247.89 240.259L247.89 305.822L264.025 305.822L264.025 321.961L345.73 321.961L345.73 224.12L264.025 224.12Z" clip-rule="evenodd"/>
  </g>
</svg>
