<svg width="159" height="54" viewBox="0 0 159 54" fill="none" xmlns="http://www.w3.org/2000/svg">
<path d="M11.1282 18.9361L10.4923 18.3002L10.45 18.2579L7.73726 15.545L4.34611 18.9361L5.31483 18.9361L7.73722 16.5136L10.1596 18.9361L10.4923 18.9361H11.1282Z" fill="#26C89A"/>
<path d="M11.8489 20.6253L14.2713 23.0477L11.8489 25.4701L11.8488 25.8029V26.4387L12.4846 25.8029L12.5271 25.7604L15.2399 23.0477L12.5271 20.335L12.4846 20.2925L11.8488 19.6567V20.2925L11.8489 20.6253Z" fill="#26C89A"/>
<path d="M10.1597 27.1593L7.73722 29.5818L5.31476 27.1593L4.34611 27.1593L7.73726 30.5503L10.45 27.8375L10.4923 27.7952L11.1282 27.1593H10.4923L10.1597 27.1593Z" fill="#26C89A"/>
<path d="M3.62565 25.4702L1.20319 23.0477L3.62565 20.6252L3.62551 19.6567L0.234619 23.0477L3.62551 26.4387L3.62565 25.4702Z" fill="#26C89A"/>
<path d="M18.6736 11.391L15.2825 8L11.8915 11.391H12.86L15.2824 8.96862L17.7048 11.391H18.6736Z" fill="#26C89A"/>
<path d="M19.3942 13.0804L21.8165 15.5027L19.3942 17.925V18.8937L20.03 18.2579L20.072 18.2159L22.7852 15.5026L19.3942 12.1116V13.0804Z" fill="#26C89A"/>
<path d="M17.7049 19.6143L15.2824 22.0367L12.86 19.6143L12.5271 19.6143L11.8915 19.6143L12.5271 20.2498L12.5697 20.2925L15.2825 23.0053L18.0373 20.2505L18.6736 19.6143L18.0373 19.6143L17.7049 19.6143Z" fill="#26C89A"/>
<path d="M11.1709 17.9252L8.74839 15.5027L11.1709 13.0801V12.1116L7.77989 15.5026L10.4923 18.2151L10.5351 18.2579L11.1709 18.8937L11.1707 18.2579L11.1709 17.9252Z" fill="#26C89A"/>
<path d="M26.2182 18.9361L22.8271 15.545L20.1143 18.2579L20.072 18.3002L19.4361 18.9361L20.072 18.9361L20.4051 18.9361L22.8275 16.5136L25.2499 18.9361H26.2182Z" fill="#26C89A"/>
<path d="M26.9388 20.625L29.3615 23.0477L26.9388 25.4704V26.4387L30.3298 23.0477L26.9388 19.6566V20.625Z" fill="#26C89A"/>
<path d="M25.2499 27.1593L22.8275 29.5818L20.405 27.1593L20.072 27.1593L19.4361 27.1593L20.072 27.7951L20.1143 27.8375L22.8271 30.5503L23.1157 30.2618L26.2182 27.1593H25.2499Z" fill="#26C89A"/>
<path d="M18.7155 25.4698L16.2934 23.0477L18.7155 20.6256V19.6566L18.0797 20.2925L15.3245 23.0477L18.0373 25.7605L18.0797 25.8029L18.7155 26.4387V25.4698Z" fill="#26C89A"/>
<path d="M18.6736 26.4811L18.0373 25.8449L17.9954 25.8029L15.2825 23.0901L12.5697 25.8029L12.5271 25.8455L11.8915 26.4811H12.5271H12.86L15.2824 24.0587L17.7048 26.4811H18.0373H18.6736Z" fill="#26C89A"/>
<path d="M19.3942 28.1704L21.8165 30.5927L19.3942 33.015V33.9837L22.4932 30.8847L22.7852 30.5927L20.072 27.8795L20.03 27.8375L19.3942 27.2017V28.1704Z" fill="#26C89A"/>
<path d="M17.7049 34.7043L15.2824 37.1268L12.86 34.7043H11.8915L15.2825 38.0954L18.6736 34.7043H17.7049Z" fill="#26C89A"/>
<path d="M11.1709 33.0153L8.74839 30.5927L11.1709 28.1702V27.2017L10.5351 27.8375L10.4923 27.8803L7.77989 30.5927L11.1709 33.9837V33.0153Z" fill="#26C89A"/>
<path fill-rule="evenodd" clip-rule="evenodd" d="M22.4932 34.4276L17.0521 39.8686L23.1793 45.9958V30.9872L22.7852 30.5927L22.4932 30.8847V34.4276ZM22.4932 44.35V35.3874L18.0119 39.8687L22.4932 44.35Z" fill="#26C89A"/>
<path fill-rule="evenodd" clip-rule="evenodd" d="M32.1 24.8208L26.659 30.2618H23.1157L22.8271 30.5503L23.2224 30.9449H38.2241L32.1 24.8208ZM32.0792 25.7565L27.6663 30.2083L36.5845 30.2618L32.0792 25.7565Z" fill="#26C89A"/>
<path d="M12.5271 19.6143V18.2579H11.1707L11.1709 18.8937L11.2133 18.9361H11.8488V19.5715L11.8915 19.6143L12.5271 19.6143Z" fill="#26C89A"/>
<path fill-rule="evenodd" clip-rule="evenodd" d="M10.4923 10.7128H20.072V18.2159L20.03 18.2579L19.3942 18.8937L19.3518 18.9361H18.7158V19.572L18.6736 19.6143L18.0373 20.2505V20.2925H12.5697L12.5271 20.2498L11.8915 19.6143L12.5271 19.6143H18.0373V18.2579H19.3939V11.391H11.1707V18.2579L11.1709 18.8937L10.5351 18.2579L10.4923 18.2151V10.7128ZM18.0373 20.2925H18.0797L18.7155 19.6566L18.7579 19.6143H19.3939V18.9783L19.4361 18.9361L20.072 18.3002L20.1143 18.2579H27.617V27.8375H20.1143L20.072 27.7951L19.4361 27.1593L19.3939 27.1171V26.4811H18.7579L18.7155 26.4387L18.0797 25.8029L18.0373 25.7605V20.2925ZM11.1707 18.9786L11.1282 18.9361L10.4923 18.3002L10.45 18.2579H2.94743V27.8375H10.45L10.4923 27.7952L11.1282 27.1593L11.1707 27.1168V26.4811H11.8064L11.8488 26.4387L12.4846 25.8029L12.5271 25.7604V20.335L12.4846 20.2925L11.8488 19.6567L11.8064 19.6143H11.1707V18.9786ZM10.4923 27.8803L10.5351 27.8375L11.1709 27.2017L11.2133 27.1593H11.8488V26.5238L11.8915 26.4811L12.5271 25.8455L12.5697 25.8029H17.9954L18.0373 25.8449L18.6736 26.4811L18.7158 26.5233V27.1593H19.3518L19.3942 27.2017L20.03 27.8375L20.072 27.8795V35.3825H10.4923V27.8803ZM10.4923 18.9361H4.34611H3.62551V19.6567V26.4387V27.1593H4.34611H10.4923V25.8029H11.8488V20.2925H10.4923V18.9361ZM11.1707 27.8375V34.7043H19.3939V27.8375H18.0373V26.4811H12.5271V27.8375H11.1707ZM20.072 27.1593V25.8029H18.7158V20.2925H20.072V18.9361H26.939V27.1593H20.072Z" fill="#26C89A"/>
<path d="M27.7515 39.5272V42.0712H35.7355V43.8472H25.6235V33.4952H35.7195V35.2712H27.7515V37.8472H34.2795V39.5272H27.7515Z" fill="white"/>
<path d="M39.7115 33.4952H50.6235V35.2712H39.7115V33.4952ZM44.1115 35.0472H46.2395V43.8472H44.1115V35.0472Z" fill="white"/>
<path d="M56.4955 37.7672H64.7035V39.5432H56.4955V37.7672ZM64.3515 33.4952H66.4795V43.8472H64.3515V33.4952ZM54.6235 33.4952H56.7515V43.8472H54.6235V33.4952Z" fill="white"/>
<path d="M73.7515 39.5272V42.0712H81.7355V43.8472H71.6235V33.4952H81.7195V35.2712H73.7515V37.8472H80.2795V39.5272H73.7515Z" fill="white"/>
<path d="M86.6235 43.8472V33.4952H93.6475C94.4475 33.4952 95.1408 33.6072 95.7275 33.8312C96.3248 34.0445 96.7888 34.3858 97.1195 34.8552C97.4501 35.3138 97.6155 35.9058 97.6155 36.6312C97.6155 37.1218 97.5301 37.5378 97.3595 37.8792C97.1888 38.2205 96.9488 38.4978 96.6395 38.7112C96.3408 38.9245 95.9941 39.0898 95.5995 39.2072C95.2048 39.3138 94.7835 39.3832 94.3355 39.4152L94.1115 39.2872C94.8581 39.2978 95.4715 39.3618 95.9515 39.4792C96.4315 39.5858 96.7888 39.7885 97.0235 40.0872C97.2688 40.3752 97.3915 40.8072 97.3915 41.3832V43.8472H95.2635V41.5272C95.2635 41.1325 95.1941 40.8285 95.0555 40.6152C94.9168 40.3912 94.6661 40.2365 94.3035 40.1512C93.9515 40.0658 93.4395 40.0232 92.7675 40.0232H88.7515V43.8472H86.6235ZM88.7515 38.3592H93.6475C94.2448 38.3592 94.6981 38.2152 95.0075 37.9272C95.3275 37.6392 95.4875 37.2498 95.4875 36.7592C95.4875 36.2898 95.3275 35.9325 95.0075 35.6872C94.6981 35.4418 94.2448 35.3192 93.6475 35.3192H88.7515V38.3592Z" fill="white"/>
<path d="M104.751 39.5272V42.0712H112.735V43.8472H102.623V33.4952H112.719V35.2712H104.751V37.8472H111.279V39.5272H104.751Z" fill="white"/>
<path d="M119.239 41.5912V39.8152H126.087V41.5912H119.239ZM116.663 43.8472L121.527 33.4952H123.831L128.743 43.8472H126.423L122.167 34.5192H123.191L118.967 43.8472H116.663Z" fill="white"/>
<path d="M134.751 33.4952V42.0712H141.631V43.8472H132.623V33.4952H134.751Z" fill="white"/>
</svg>
